<svg version="1.1" id="Laag_1" xmlns="http://www.w3.org/2000/svg" xmlns:xlink="http://www.w3.org/1999/xlink" x="0px" y="0px" viewBox="0 0 220.333 161.025" enable-background="new 0 0 220.333 161.025" preserveAspectRatio="xMidYMid meet" xml:space="preserve">
<g>
<g>
<path fill="#3C3C3B" d="M86.512,70.972h5.523V82.13h0.074l8.984-11.158h6.592l-10.42,12.41l11.084,13.811h-6.998L92.11,85.187
			h-0.074v12.006h-5.523V70.972z"></path>
<path fill="#3C3C3B" d="M111.079,70.972h17.014v4.199H116.6v6.404h10.863v4.199H116.6v7.221h11.857v4.197h-17.379V70.972z"></path>
<path fill="#3C3C3B" d="M139.584,80.068c-0.59-1.73-1.215-4.271-1.326-5.045h-0.332c0.035,0.995,0.072,1.914,0.072,2.836v19.334
			h-5.08V70.972h8.58l4.859,14.582c0.48,1.473,0.996,3.719,1.143,4.566h0.221c0.146-0.848,0.662-3.094,1.141-4.566l4.863-14.582
			h8.58v26.221h-5.084V77.859c0-0.922,0.035-1.841,0.074-2.836h-0.332c-0.111,0.773-0.736,3.314-1.326,5.045l-5.854,17.125h-4.346
			L139.584,80.068z"></path>
<path fill="#3C3C3B" d="M167.686,70.972h10.678c5.965,0,8.213,3.057,8.213,6.629c0,2.615-1.361,5.266-4.752,5.932v0.068
			c2.578,0.297,5.449,2.359,5.449,6.336c0,4.604-2.871,7.256-9.057,7.256h-10.531V70.972z M177.516,81.726
			c2.062,0,3.758-1.031,3.758-3.499c0-2.134-1.145-3.204-3.242-3.204h-5.045v6.703H177.516z M177.811,93.142
			c1.99,0,4.051-0.885,4.051-3.609c0-1.99-0.846-3.758-3.902-3.758h-4.973v7.367H177.811z"></path>
<path fill="#3C3C3B" d="M191.549,70.972h5.525v26.221h-5.525V70.972z"></path>
<path fill="#3C3C3B" d="M207.239,75.316h-7.182v-4.344h19.885v4.344h-7.18v21.877h-5.523V75.316z"></path>
	</g>
<rect x="22.612" y="74.836" fill="#73CAEB" width="11.136" height="11.14"></rect>
<rect x="33.746" y="63.7" fill="#5C2483" width="11.137" height="11.137"></rect>
<rect x="33.746" y="74.835" fill="#0BBBEF" width="11.137" height="11.137"></rect>
<rect x="22.612" y="85.97" fill="#EF7D00" width="11.136" height="11.139"></rect>
<rect x="22.612" y="63.7" fill="#F59E00" width="11.136" height="11.137"></rect>
<rect x="22.612" y="97.109" fill="#F59E00" width="11.136" height="11.137"></rect>
<rect x="56.02" y="74.836" fill="#0BBBEF" width="11.137" height="11.14"></rect>
<rect x="56.02" y="85.97" fill="#0F81B7" width="11.137" height="11.139"></rect>
<polygon fill="#312783" points="33.746,85.97 33.746,97.109 33.746,108.246 44.883,108.246 44.883,97.109 44.883,85.97"></polygon>
<rect x="0.31" y="52.564" fill="#951B81" width="11.137" height="11.135"></rect>
<rect x="22.612" y="52.564" fill="#951B81" width="11.136" height="11.135"></rect>
<rect x="33.746" y="52.564" fill="#7D2082" width="11.137" height="11.135"></rect>
<rect x="44.883" y="108.244" fill="#6CB7B0" width="11.137" height="11.137"></rect>
<rect x="44.883" y="74.835" fill="#2FAAAF" width="11.137" height="11.137"></rect>
<rect x="44.883" y="97.109" fill="#2FAAAF" width="11.137" height="11.137"></rect>
<rect x="44.883" y="85.97" fill="#2581C4" width="11.137" height="11.139"></rect>
<rect x="44.883" y="30.484" fill="#D7007F" width="11.137" height="11.137"></rect>
<rect x="44.883" y="52.564" fill="#D7007F" width="11.137" height="11.135"></rect>
<rect x="44.883" y="63.7" fill="#DA4287" width="11.137" height="11.137"></rect>
<rect x="11.476" y="85.97" fill="#E73339" width="11.137" height="11.139"></rect>
<polygon fill="#E73339" points="11.476,108.244 11.476,119.382 11.476,119.382 11.476,130.519 22.614,130.519 22.614,119.382
         		22.614,119.382 22.614,108.244 	"></polygon>
<rect x="0.338" y="108.244" fill="#D3D80E" width="11.137" height="11.137"></rect>
<rect x="22.612" y="108.244" fill="#D3D80E" width="11.136" height="11.137"></rect>
<rect x="33.746" y="108.244" fill="#B7CE24" width="11.137" height="11.135"></rect>
<g>
<path fill="#951B81" d="M86.813,105.355c-0.371,0-0.66-0.287-0.66-0.635c0-0.361,0.289-0.65,0.66-0.65
			c0.334,0,0.623,0.289,0.623,0.65C87.436,105.068,87.147,105.355,86.813,105.355z M86.344,112.775v-6.295h0.9v6.295H86.344z"></path>
<path fill="#951B81" d="M93.313,112.775v-3.682c0-1.354-0.482-1.965-1.488-1.965c-0.875,0-1.557,0.588-1.557,1.965v3.682H89.37
			v-6.295h0.898v0.768c0.359-0.527,0.947-0.898,1.736-0.898c1.332,0,2.207,0.779,2.207,2.59v3.836H93.313z"></path>
<path fill="#951B81" d="M100.184,112.775v-3.682c0-1.354-0.479-1.965-1.486-1.965c-0.875,0-1.559,0.588-1.559,1.965v3.682h-0.898
			v-6.295h0.898v0.768c0.359-0.527,0.947-0.898,1.74-0.898c1.328,0,2.203,0.779,2.203,2.59v3.836H100.184z"></path>
<path fill="#951B81" d="M105.487,112.906c-1.535,0-2.711-1.139-2.711-3.271c0-2.135,1.223-3.285,2.758-3.285
			c1.533,0,2.711,1.102,2.711,3.236C108.245,111.718,107.022,112.906,105.487,112.906z M105.51,107.128
			c-1.092,0-1.822,0.826-1.822,2.482c0,1.652,0.73,2.516,1.822,2.516s1.832-0.863,1.832-2.516
			C107.342,107.955,106.602,107.128,105.51,107.128z"></path>
<path fill="#951B81" d="M112.502,112.775h-0.791l-2.254-6.295h0.959l1.607,4.951l0.094,0.301l0.096-0.301l1.607-4.951h0.936
			L112.502,112.775z"></path>
<path fill="#951B81" d="M119.913,112.775v-0.768c-0.441,0.479-1.064,0.898-1.963,0.898c-0.984,0-2.016-0.492-2.016-2.014
			c0-1.416,1.164-2.012,2.408-2.012c0.637,0,1.201,0.154,1.57,0.357v-0.742c0-0.938-0.441-1.393-1.365-1.393
			c-0.66,0-1.197,0.18-1.713,0.482l-0.338-0.732c0.551-0.301,1.295-0.504,2.111-0.504c1.355,0,2.203,0.576,2.203,2.039v4.387
			H119.913z M119.913,109.958c-0.406-0.229-0.848-0.361-1.615-0.361c-0.924,0-1.477,0.443-1.477,1.236
			c0,0.934,0.516,1.342,1.283,1.342c0.816,0,1.426-0.42,1.809-0.947V109.958z"></path>
<path fill="#951B81" d="M123.991,107.238v4.098c0,0.564,0.158,0.754,0.637,0.754c0.359,0,0.6-0.059,0.889-0.178l-0.062,0.777
			c-0.348,0.145-0.682,0.217-1.16,0.217c-0.781,0-1.201-0.383-1.201-1.426v-4.242h-0.779v-0.758h0.779v-1.941l0.898-0.504v2.445
			h1.561v0.758H123.991z"></path>
<path fill="#951B81" d="M127.901,105.355c-0.369,0-0.658-0.287-0.658-0.635c0-0.361,0.289-0.65,0.658-0.65
			c0.336,0,0.623,0.289,0.623,0.65C128.524,105.068,128.237,105.355,127.901,105.355z M127.434,112.775v-6.295h0.9v6.295H127.434z"></path>
<path fill="#951B81" d="M132.833,112.906c-1.535,0-2.711-1.139-2.711-3.271c0-2.135,1.223-3.285,2.756-3.285
			c1.535,0,2.711,1.102,2.711,3.236C135.588,111.718,134.366,112.906,132.833,112.906z M132.854,107.128
			c-1.09,0-1.822,0.826-1.822,2.482c0,1.652,0.732,2.516,1.822,2.516c1.092,0,1.834-0.863,1.834-2.516
			C134.688,107.955,133.946,107.128,132.854,107.128z"></path>
<path fill="#951B81" d="M141.262,112.775v-3.682c0-1.354-0.48-1.965-1.488-1.965c-0.875,0-1.557,0.588-1.557,1.965v3.682h-0.898
			v-6.295h0.898v0.768c0.359-0.527,0.947-0.898,1.738-0.898c1.33,0,2.205,0.779,2.205,2.59v3.836H141.262z"></path>
<path fill="#951B81" d="M152.571,112.775l-0.672-0.863c-0.6,0.611-1.354,0.994-2.252,0.994c-1.846,0-2.531-1.029-2.531-2.252
			c0-1.178,0.695-1.873,1.859-2.518l-0.299-0.396c-0.455-0.588-0.707-1.031-0.707-1.68c0-1.053,0.812-1.809,2.133-1.809
			c0.936,0,1.631,0.275,2.23,0.756l-0.492,0.768c-0.623-0.492-1.092-0.686-1.75-0.686c-0.744,0-1.199,0.361-1.199,0.926
			c0,0.441,0.18,0.754,0.504,1.174l2.527,3.297c0.23-0.42,0.41-0.924,0.578-1.465l0.826,0.252c-0.191,0.695-0.48,1.355-0.85,1.932
			l1.209,1.57H152.571z M149.467,108.771c-0.924,0.479-1.426,1.043-1.426,1.857c0,0.779,0.551,1.438,1.629,1.438
			c0.707,0,1.271-0.299,1.727-0.803L149.467,108.771z"></path>
<path fill="#951B81" d="M158.897,105.355c-0.373,0-0.662-0.287-0.662-0.635c0-0.361,0.289-0.65,0.662-0.65
			c0.334,0,0.623,0.289,0.623,0.65C159.52,105.068,159.231,105.355,158.897,105.355z M158.428,112.775v-6.295h0.898v6.295H158.428z"></path>
<path fill="#951B81" d="M165.395,112.775v-3.682c0-1.354-0.479-1.965-1.486-1.965c-0.875,0-1.561,0.588-1.561,1.965v3.682h-0.898
			v-6.295h0.898v0.768c0.361-0.527,0.947-0.898,1.74-0.898c1.33,0,2.205,0.779,2.205,2.59v3.836H165.395z"></path>
<path fill="#951B81" d="M169.475,107.238v4.098c0,0.564,0.154,0.754,0.633,0.754c0.361,0,0.6-0.059,0.889-0.178l-0.059,0.777
			c-0.348,0.145-0.686,0.217-1.164,0.217c-0.781,0-1.199-0.383-1.199-1.426v-4.242h-0.779v-0.758h0.779v-1.941l0.9-0.504v2.445
			h1.557v0.758H169.475z"></path>
<path fill="#951B81" d="M177.616,109.933h-4.195c0.084,1.344,0.719,2.193,1.748,2.193c0.732,0,1.164-0.215,1.74-0.598l0.418,0.646
			c-0.754,0.479-1.305,0.73-2.252,0.73c-1.152,0-2.555-0.84-2.555-3.309c0-2.002,1.105-3.248,2.604-3.248
			c1.643,0,2.527,1.295,2.527,3.092C177.651,109.658,177.641,109.789,177.616,109.933z M175.11,107.128
			c-0.934,0-1.584,0.672-1.689,2.072h3.391C176.739,107.978,176.211,107.128,175.11,107.128z"></path>
<path fill="#951B81" d="M179.463,112.775v-8.236l0.9-0.504v8.74H179.463z"></path>
<path fill="#951B81" d="M182.547,112.775v-8.236l0.898-0.504v8.74H182.547z"></path>
<path fill="#951B81" d="M186.098,105.355c-0.371,0-0.66-0.287-0.66-0.635c0-0.361,0.289-0.65,0.66-0.65
			c0.334,0,0.623,0.289,0.623,0.65C186.721,105.068,186.432,105.355,186.098,105.355z M185.629,112.775v-6.295h0.9v6.295H185.629z"></path>
<path fill="#951B81" d="M190.174,115.089l-0.287-0.686c2.098-0.059,2.576-0.609,2.576-2.072v-0.324
			c-0.443,0.479-1.043,0.898-1.893,0.898c-1.258,0-2.254-0.957-2.254-3.176c0-2.23,1.055-3.381,2.373-3.381
			c0.793,0,1.33,0.334,1.773,0.84v-0.709h0.902v5.73C193.366,114.105,192.512,115.017,190.174,115.089z M192.463,108.076
			c-0.348-0.527-0.957-0.947-1.701-0.947c-1.043,0-1.557,0.898-1.557,2.59c0,1.582,0.6,2.408,1.592,2.408
			c0.672,0,1.223-0.359,1.666-0.91V108.076z"></path>
<path fill="#951B81" d="M200.19,109.933h-4.197c0.086,1.344,0.719,2.193,1.752,2.193c0.73,0,1.162-0.215,1.736-0.598l0.42,0.646
			c-0.754,0.479-1.309,0.73-2.252,0.73c-1.15,0-2.555-0.84-2.555-3.309c0-2.002,1.102-3.248,2.6-3.248
			c1.643,0,2.531,1.295,2.531,3.092C200.225,109.658,200.213,109.789,200.19,109.933z M197.684,107.128
			c-0.938,0-1.582,0.672-1.691,2.072h3.393C199.315,107.978,198.786,107.128,197.684,107.128z"></path>
<path fill="#951B81" d="M205.922,112.775v-3.682c0-1.354-0.479-1.965-1.484-1.965c-0.877,0-1.561,0.588-1.561,1.965v3.682h-0.898
			v-6.295h0.898v0.768c0.359-0.527,0.947-0.898,1.74-0.898c1.328,0,2.203,0.779,2.203,2.59v3.836H205.922z"></path>
<path fill="#951B81" d="M212.674,107.765c-0.455-0.41-0.875-0.637-1.51-0.637c-0.982,0-1.738,0.887-1.738,2.457
			c0,1.547,0.658,2.541,1.773,2.541c0.613,0,1.02-0.25,1.451-0.67l0.539,0.574c-0.527,0.541-1.139,0.875-2.025,0.875
			c-1.379,0-2.65-1.055-2.65-3.248c0-2.326,1.391-3.309,2.711-3.309c0.85,0,1.498,0.311,1.99,0.744L212.674,107.765z"></path>
<path fill="#951B81" d="M219.62,109.933h-4.195c0.086,1.344,0.719,2.193,1.75,2.193c0.732,0,1.164-0.215,1.738-0.598l0.42,0.646
			c-0.754,0.479-1.309,0.73-2.252,0.73c-1.152,0-2.555-0.84-2.555-3.309c0-2.002,1.102-3.248,2.6-3.248
			c1.643,0,2.531,1.295,2.531,3.092C219.657,109.658,219.643,109.789,219.62,109.933z M217.116,107.128
			c-0.938,0-1.584,0.672-1.691,2.072h3.393C218.745,107.978,218.217,107.128,217.116,107.128z"></path>
	</g>
</g>
</svg>