<?xml version="1.0" encoding="UTF-8" standalone="no"?>
<!DOCTYPE svg  PUBLIC '-//W3C//DTD SVG 1.1//EN'  'http://www.w3.org/Graphics/SVG/1.1/DTD/svg11.dtd'>
<svg xmlns="http://www.w3.org/2000/svg">
<defs>
<font id="Interstate-Bold" horiz-adv-x="714">
<font-face underline-position="-113" font-weight="400" descent="-200" panose-1="2 0 5 3 9 0 0 2 0 4" units-per-em="1000" unicode-range="U+0020-02DC" bbox="-44 -193 979 905" x-height="525" underline-thickness="20" font-family="Interstate" ascent="800" cap-height="700"/>
<missing-glyph horiz-adv-x="1000"/>
<glyph glyph-name=".notdef" horiz-adv-x="1000"/>
<glyph glyph-name=".null" horiz-adv-x="0"/>
<glyph glyph-name="nonmarkingreturn" horiz-adv-x="1000"/>
<glyph glyph-name="space" horiz-adv-x="290" unicode=" "/>
<glyph glyph-name="exclam" horiz-adv-x="340" unicode="!" d="M255 74q0 -35 -25 -60t-60 -25t-60 25t-25 60t25 60t60 25t60 -25t25 -60zM217 220h-94l-23 192v288h140v-288z"/>
<glyph glyph-name="quotedbl" horiz-adv-x="528" unicode='&quot;' d="M187 373h-95l-35 327h165zM436 373h-95l-35 327h165z"/>
<glyph glyph-name="numbersign" horiz-adv-x="740" unicode="#" d="M448 445h-156v-190h156v190zM570 140v-140h-122v140h-156v-140h-122v140h-120v115h120v190h-120v115h120v140h122v-140h156v140h122v-140h120v-115h-120v-190h120v-115h-120z"/>
<glyph glyph-name="dollar" horiz-adv-x="655" unicode="$" d="M600 212q0 -86 -47.5 -141.5t-150.5 -71.5v-99h-140v99q-68 11 -122.5 42.5t-86.5 79.5l101 90q37 -43 82.5 -61.5t96.5 -18.5q63 0 92.5 15.5t29.5 55.5q0 17 -6 29.5t-22.5 23.5t-47.5 21t-80 21q-48 11 -88.5 26t-69.5 38t-45 58t-16 87q0 39 13.5 71.5t38 57.5t58 41 t72.5 24v100h140v-101q56 -11 100.5 -37t82.5 -66l-101 -98q-34 35 -72.5 53.5t-86.5 18.5q-56 0 -78 -17.5t-22 -40.5q0 -17 6.5 -28.5t22.5 -20.5t43 -17t69 -18t83.5 -23.5t75 -37.5t54.5 -61t21 -94z"/>
<glyph glyph-name="ampersand" horiz-adv-x="700" unicode="&amp;" d="M258 294q-42 -22 -59.5 -48.5t-17.5 -58.5q0 -34 26.5 -54t79.5 -20q65 0 108 31zM528 0l-53 57q-83 -68 -204 -68q-108 0 -169 45.5t-61 140.5q0 74 38 121t105 80l-18 20q-28 31 -44.5 65.5t-16.5 76.5q0 43 16 75t44 54t66 33t82 11q64 0 111.5 -19t97.5 -54l-67 -101 q-35 26 -71.5 38t-74.5 12q-31 0 -48.5 -12t-17.5 -34q0 -23 10 -39.5t27 -36.5l193 -220q23 47 49 116l113 -36q-17 -51 -36.5 -95t-42.5 -80l132 -150h-160z"/>
<glyph glyph-name="quotesingle" horiz-adv-x="284" unicode="&apos;" d="M192 373h-100l-35 327h170z"/>
<glyph glyph-name="parenleft" horiz-adv-x="370" unicode="(" d="M237 -110q-35 40 -67 82t-56 92t-36 108q-14 58 -14 128t12 128t36 108q23 50 55 94t70 86l90 -62q-27 -35 -49 -72q-22 -38 -37 -80q-17 -42 -25 -91t-8 -106q0 -59 8 -109t24 -92t38 -80t49 -72z"/>
<glyph glyph-name="parenright" horiz-adv-x="370" unicode=")" d="M306 306q0 -70 -12 -128t-36 -108q-23 -50 -55 -94t-70 -86l-90 62q27 34 49 72t37 80q17 42 25 91t8 106q0 59 -8 109t-24 92t-38 80t-49 72l90 62q35 -40 67 -83t56 -93t36 -106q14 -58 14 -128z"/>
<glyph glyph-name="asterisk" horiz-adv-x="500" unicode="*" d="M414 324l-122 82l11 -146h-106l10 148l-122 -82l-52 90l141 64l-141 65l52 91l122 -83l-10 147h106l-11 -146l122 83l53 -91l-144 -65l144 -66z"/>
<glyph glyph-name="plus" horiz-adv-x="613" unicode="+" d="M375 279v-190h-137v190h-183v130h183v190h137v-190h183v-130h-183z"/>
<glyph glyph-name="comma" horiz-adv-x="272" unicode="," d="M144 -126h-94l15 295h163z"/>
<glyph glyph-name="hyphen" horiz-adv-x="407" unicode="-" d="M60 294v138h287v-138h-287z"/>
<glyph glyph-name="period" horiz-adv-x="272" unicode="." d="M230 83q0 -19 -7.5 -36t-20.5 -30t-30 -20.5t-36 -7.5t-36 7.5t-30 20.5t-20.5 30t-7.5 36t7.5 36t20.5 30t30 20.5t36 7.5t36 -7.5t30 -20.5t20.5 -30t7.5 -36z"/>
<glyph glyph-name="slash" horiz-adv-x="470" unicode="/" d="M140 -90h-136l326 880h136z"/>
<glyph glyph-name="zero" horiz-adv-x="663" unicode="0" d="M484 350q0 47 -9 88t-27.5 71t-47.5 47.5t-69 17.5t-68.5 -17t-47 -47t-27 -70.5t-8.5 -87.5t8.5 -88t27 -72t47.5 -48.5t69 -17.5t69 17.5t47.5 47.5t27 71t8.5 88zM626 352q0 -80 -19 -146.5t-56.5 -114.5t-92.5 -75t-127 -27t-126.5 26.5t-91.5 74t-56 114t-19 146.5 t19 146.5t56.5 114t92 74t126.5 26.5t126.5 -26t92 -73.5t56.5 -113.5t19 -146z"/>
<glyph glyph-name="one" horiz-adv-x="663" unicode="1" d="M298 0v506h-120v103q59 3 95.5 25t47.5 66h116v-700h-139z"/>
<glyph glyph-name="two" horiz-adv-x="663" unicode="2" d="M53 0q1 90 27.5 156t70.5 115t102 84.5t122 63.5q45 20 62 40.5t17 43.5q0 27 -26 49t-89 22t-112.5 -24.5t-86.5 -59.5l-90 105q56 57 128 86.5t156 29.5q125 0 192.5 -50t67.5 -151q0 -42 -11.5 -73.5t-34 -56.5t-56 -45.5t-78.5 -41.5q-47 -21 -79.5 -41t-54.5 -39 t-34 -38.5t-17 -39.5h372v-135h-548z"/>
<glyph glyph-name="three" horiz-adv-x="663" unicode="3" d="M597 217q0 -57 -21 -99.5t-59 -71t-91.5 -43t-118.5 -14.5q-79 0 -148.5 32t-128.5 102l106 86q44 -46 87 -64.5t97 -18.5q69 0 102 23.5t33 65.5q0 41 -26.5 60.5t-76.5 19.5h-83v137h75q44 0 63 18t19 53q0 13 -6 26t-19.5 23t-36 16t-55.5 6q-79 0 -137 -59l-102 93 q50 52 106.5 77.5t134.5 25.5q54 0 100.5 -12.5t81.5 -37t55 -62t20 -86.5q0 -57 -25 -92t-56 -51q17 -6 36 -18t35.5 -30.5t27.5 -44.5t11 -60z"/>
<glyph glyph-name="four" horiz-adv-x="663" unicode="4" d="M414 540q-10 -14 -27.5 -36.5t-34.5 -42.5l-100 -117q-8 -10 -17.5 -20.5t-18.5 -20t-16.5 -18t-13.5 -14.5q9 0 26 0.5t37.5 0.5t40.5 0.5t35 0.5h86v114q0 15 0.5 37t1 44.5t1 42t0.5 29.5zM546 143v-143h-135v143h-383v126l371 431h147v-427h92v-130h-92z"/>
<glyph glyph-name="five" horiz-adv-x="663" unicode="5" d="M614 244q0 -63 -21.5 -110.5t-60 -80t-92.5 -48.5t-118 -16q-76 0 -141.5 16.5t-131.5 58.5l68 119q49 -28 100 -43.5t105 -15.5q72 0 111 29t39 86q0 27 -9.5 47t-25.5 32.5t-37.5 18.5t-46.5 6q-48 0 -80.5 -12.5t-57.5 -29.5l-133 49l24 350h466v-135h-337l-8 -121 q29 16 63 24t84 8q59 0 104 -17.5t75 -49t45.5 -74t15.5 -91.5z"/>
<glyph glyph-name="six" horiz-adv-x="663" unicode="6" d="M478 224q0 54 -37 79t-103 25q-72 0 -109 -25t-37 -80q0 -49 35 -76.5t104 -27.5q70 0 108.5 28t38.5 77zM620 229q0 -59 -23 -103.5t-62.5 -75t-93.5 -46t-116 -15.5q-59 0 -109.5 16.5t-88 51.5t-59 88t-21.5 127q0 46 9.5 96.5t32 99t58 93t88 78t122.5 53t161 19.5 v-136q-122 0 -198.5 -41.5t-106.5 -122.5q34 23 70 33.5t90 10.5q52 0 97 -13.5t78.5 -41.5t52.5 -70.5t19 -100.5z"/>
<glyph glyph-name="seven" horiz-adv-x="663" unicode="7" d="M585 565q-107 -104 -169.5 -244t-62.5 -321h-143q0 171 54 313t152 254h-356v133h525v-135z"/>
<glyph glyph-name="eight" horiz-adv-x="663" unicode="8" d="M484 212q0 48 -36.5 74t-116.5 26q-79 0 -116 -27t-37 -72q0 -48 43 -74.5t110 -26.5q72 0 112.5 26t40.5 74zM454 506q0 17 -6.5 32t-20.5 26.5t-38 18.5t-58 7q-65 0 -94 -24.5t-29 -58.5t31 -57t92 -23q65 0 94 22t29 57zM624 217q0 -53 -20.5 -95t-58.5 -71.5 t-92 -45.5t-122 -16t-122 15t-92 43.5t-58.5 69.5t-20.5 93q0 36 10 64t25.5 48.5t35.5 34.5t40 23q-38 20 -59.5 52t-21.5 71q0 52 20.5 91t56 65t83.5 39t103 13q52 0 99.5 -12.5t84 -37.5t58 -63t21.5 -89q0 -38 -20 -72t-61 -57q20 -9 40 -23.5t35.5 -34t25.5 -46 t10 -59.5z"/>
<glyph glyph-name="nine" horiz-adv-x="663" unicode="9" d="M471 477q0 49 -35 76.5t-104 27.5q-70 0 -108.5 -28t-38.5 -77q0 -54 37 -79t103 -25q72 0 109 25t37 80zM616 428q0 -46 -9.5 -96.5t-32 -99t-58 -93t-88 -78t-122.5 -53t-161 -19.5v136q122 0 198.5 41.5t106.5 122.5q-34 -23 -70 -33.5t-90 -10.5q-52 0 -97 13.5 t-78.5 41.5t-52.5 70.5t-19 100.5t23 103t62.5 75.5t93.5 46t116 15.5q58 0 109 -16.5t88.5 -51.5t59 -88.5t21.5 -126.5z"/>
<glyph glyph-name="colon" horiz-adv-x="272" unicode=":" d="M230 83q0 -19 -7.5 -36t-20.5 -30t-30 -20.5t-36 -7.5t-36 7.5t-30 20.5t-20.5 30t-7.5 36t7.5 36t20.5 30t30 20.5t36 7.5t36 -7.5t30 -20.5t20.5 -30t7.5 -36zM230 442q0 -19 -7.5 -36t-20.5 -30t-30 -20.5t-36 -7.5t-36 7.5t-30 20.5t-20.5 30t-7.5 36t7.5 36t20.5 30 t30 20.5t36 7.5t36 -7.5t30 -20.5t20.5 -30t7.5 -36z"/>
<glyph glyph-name="semicolon" horiz-adv-x="272" unicode=";" d="M137 -126h-94l15 295h163zM230 442q0 -19 -7.5 -36t-20.5 -30t-30 -20.5t-36 -7.5t-36 7.5t-30 20.5t-20.5 30t-7.5 36t7.5 36t20.5 30t30 20.5t36 7.5t36 -7.5t30 -20.5t20.5 -30t7.5 -36z"/>
<glyph glyph-name="less" horiz-adv-x="450" unicode="&lt;" d="M57 297v94l331 269v-172l-187 -143l187 -144v-173z"/>
<glyph glyph-name="equal" horiz-adv-x="613" unicode="=" d="M80 161v129h453v-129h-453zM80 398v129h453v-129h-453z"/>
<glyph glyph-name="greater" horiz-adv-x="450" unicode="&gt;" d="M62 28v172l187 143l-187 144v173l331 -269v-94z"/>
<glyph glyph-name="question" horiz-adv-x="584" unicode="?" d="M354 74q0 -35 -25 -60t-60 -25t-60 25t-25 60t25 60t60 25t60 -25t25 -60zM546 507q0 -35 -9 -62t-23.5 -47t-32.5 -33.5t-36 -22.5q-32 -15 -52 -27.5t-32 -26t-17.5 -30t-6.5 -38.5h-137q0 36 6 65t22 54t43.5 46t69.5 41q38 17 51.5 32.5t13.5 42.5q0 35 -27.5 54 t-91.5 19q-57 0 -99 -24t-76 -60l-90 105q46 48 111.5 82t153.5 34q57 0 105 -12.5t82 -37.5t53 -63.5t19 -90.5z"/>
<glyph glyph-name="at" horiz-adv-x="836" unicode="@" d="M474 326q-14 8 -30 13t-45 5q-63 0 -63 -53q0 -22 14 -38.5t49 -16.5q26 0 46 11.5t29 27.5v51zM779 360q0 -56 -11 -95t-31.5 -64t-48 -36t-60.5 -11q-46 0 -72 14.5t-45 40.5q-23 -25 -52 -40.5t-76 -15.5q-27 0 -53 8.5t-46 25.5t-32.5 43t-12.5 61q0 32 12 56 t33.5 40t50 24t61.5 8q29 0 45.5 -5.5t32.5 -13.5v25q0 23 -14.5 38.5t-44.5 15.5q-35 0 -58 -6t-49 -20l-37 66q33 20 65 29.5t79 9.5q70 0 113.5 -34.5t43.5 -100.5v-143q0 -29 14 -48t48 -19q47 0 67 38.5t20 109.5q0 60 -23 113t-63.5 93t-96 63.5t-120.5 23.5 q-66 0 -121.5 -23t-96 -63.5t-63 -96t-22.5 -120.5q0 -66 22.5 -121.5t63 -96t96 -63.5t121.5 -23q34 0 65 6t65 23l24 -53q-43 -20 -77 -27t-77 -7q-78 0 -144.5 27t-114.5 75t-75 114.5t-27 144.5t27 144.5t75 114.5t114.5 75t144.5 27q80 0 146.5 -28t114 -76t74 -112 t26.5 -135z"/>
<glyph glyph-name="A" horiz-adv-x="750" unicode="A" d="M408 416q-11 31 -20.5 60t-14.5 49q-5 -20 -14.5 -49t-20.5 -60l-45 -127h160zM556 0l-55 156h-256l-55 -156h-150l268 700h136l266 -700h-154z"/>
<glyph glyph-name="B" horiz-adv-x="710" unicode="B" d="M513 224q0 90 -100 90h-186v-181h186q51 0 75.5 24.5t24.5 66.5zM491 504q0 33 -20 50t-66 17h-178v-133h185q44 0 61.5 18.5t17.5 47.5zM657 226q0 -55 -18 -97.5t-50.5 -71t-78.5 -43t-102 -14.5h-318v700h321q102 0 162 -47.5t60 -137.5q0 -45 -19.5 -80t-54.5 -56 q42 -19 70 -57t28 -96z"/>
<glyph glyph-name="C" horiz-adv-x="670" unicode="C" d="M490 496q-19 36 -49.5 56t-78.5 20q-39 0 -70 -16.5t-52 -46t-32 -70t-11 -89.5q0 -47 11 -87.5t32.5 -70.5t52.5 -47t70 -17q48 0 78.5 21t58.5 68l118 -70q-36 -75 -99.5 -116.5t-159.5 -41.5q-69 0 -125 25.5t-96.5 72.5t-62.5 113.5t-22 149.5q0 80 23 146.5t64 114 t98 74t126 26.5q49 0 89 -11.5t71.5 -32t55 -49t40.5 -62.5z"/>
<glyph glyph-name="D" horiz-adv-x="707" unicode="D" d="M513 350q0 107 -49 160.5t-160 53.5h-74v-428h69q55 0 95.5 15.5t66.5 43.5t39 67.5t13 87.5zM657 350q0 -92 -30.5 -158.5t-81 -109t-115 -62.5t-131.5 -20h-209v700h219q75 0 138.5 -18.5t110 -60.5t73 -108.5t26.5 -162.5z"/>
<glyph glyph-name="E" horiz-adv-x="650" unicode="E" d="M90 0v700h486v-137h-346v-121h201v-136h-201v-169h361v-137h-501z"/>
<glyph glyph-name="F" horiz-adv-x="625" unicode="F" d="M230 563v-132h211v-136h-211v-295h-140v700h501v-137h-361z"/>
<glyph glyph-name="G" horiz-adv-x="698" unicode="G" d="M640 271q0 -68 -21 -120.5t-58.5 -88.5t-89 -54.5t-112.5 -18.5q-69 0 -125 25.5t-96.5 72.5t-62.5 113.5t-22 149.5q0 80 23 146.5t64 114t98 74t126 26.5q54 0 95.5 -12t73.5 -35t55.5 -55.5t40.5 -72.5l-133 -55q-10 19 -21.5 36t-27 29t-36.5 19t-49 7 q-39 0 -70 -16.5t-52 -46t-32 -70t-11 -89.5q0 -48 11 -89t32.5 -71t52.5 -47t70 -17q36 0 61 8t40.5 22t24 33.5t11.5 42.5h-111v131h251v-92z"/>
<glyph glyph-name="H" horiz-adv-x="747" unicode="H" d="M517 0v294h-287v-294h-140v700h140v-268h287v268h140v-700h-140z"/>
<glyph glyph-name="I" horiz-adv-x="340" unicode="I" d="M100 0v700h140v-700h-140z"/>
<glyph glyph-name="J" horiz-adv-x="650" unicode="J" d="M565 292q0 -69 -15.5 -124.5t-48 -95.5t-82.5 -61.5t-119 -21.5q-53 0 -96.5 15t-77 42.5t-57.5 65.5t-37 84l137 37q20 -54 50 -79.5t81 -25.5q65 0 95 40.5t30 119.5v412h140v-408z"/>
<glyph glyph-name="K" horiz-adv-x="720" unicode="K" d="M532 0l-190 338l-112 -132v-206h-140v700h140v-199v-25.5t-0.5 -31.5t-1 -31t-0.5 -23q7 12 24 33t31 38l196 239h169l-205 -242l257 -458h-168z"/>
<glyph glyph-name="L" horiz-adv-x="620" unicode="L" d="M90 0v700h140v-562h351v-138h-491z"/>
<glyph glyph-name="M" horiz-adv-x="835" unicode="M" d="M605 0v257q0 14 0.5 36t0.5 45t0.5 43t0.5 30q-8 -20 -21.5 -53t-27.5 -63l-142 -311l-142 311q-14 30 -27.5 63t-21.5 53q0 -10 0.5 -30t0.5 -43t0.5 -45t0.5 -36v-257h-137v700h135l146 -317q7 -15 14 -31.5t13.5 -32.5t12 -30t8.5 -23q7 20 20 53.5t27 63.5l141 317 h138v-700h-140z"/>
<glyph glyph-name="N" horiz-adv-x="747" unicode="N" d="M532 0l-257 382q-13 20 -27.5 42.5t-21.5 36.5q0 -10 0.5 -29.5t0.5 -42t0.5 -44.5t0.5 -37v-308h-138v700h134l248 -370q13 -20 27.5 -42.5t21.5 -36.5q0 10 -0.5 29.5t-0.5 42t-0.5 44.5t-0.5 37v296h138v-700h-125z"/>
<glyph glyph-name="O" d="M517 350q0 47 -9 87.5t-28.5 70.5t-50 47t-72.5 17t-72.5 -17t-50 -47t-28.5 -70.5t-9 -87.5t9 -87.5t28.5 -70.5t50 -47t72.5 -17t72.5 17t50 47t28.5 70.5t9 87.5zM661 350q0 -80 -20.5 -146.5t-59.5 -114t-95.5 -74t-128.5 -26.5t-128.5 26.5t-95.5 74t-59.5 114 t-20.5 146.5t20.5 146.5t59.5 114t95.5 74t128.5 26.5t128.5 -26.5t95.5 -74t59.5 -114t20.5 -146.5z" unicode="O"/>
<glyph glyph-name="P" horiz-adv-x="680" unicode="P" d="M493 475q0 46 -27.5 67.5t-74.5 21.5h-161v-180h163q100 0 100 91zM637 478q0 -61 -19 -104.5t-53 -71.5t-80.5 -41t-100.5 -13h-154v-248h-140v700h306q49 0 93 -13.5t77 -41.5t52 -69.5t19 -97.5z"/>
<glyph glyph-name="Q" d="M517 350q0 47 -9 87.5t-28.5 70.5t-50 47t-72.5 17t-72.5 -17t-50 -47t-28.5 -70.5t-9 -87.5q0 -48 9.5 -90t29.5 -72.5t51 -48.5t73 -18q6 0 12 0.5t11 1.5l-47 70l107 70l45 -67q17 29 23 69t6 85zM661 350q0 -91 -24.5 -156t-70.5 -113l52 -76l-107 -70l-50 73 q-47 -19 -104 -19q-72 0 -128.5 26.5t-95.5 74t-59.5 114t-20.5 146.5t20.5 146.5t59.5 114t95.5 74t128.5 26.5t128.5 -26.5t95.5 -74t59.5 -114t20.5 -146.5z" unicode="Q"/>
<glyph glyph-name="R" d="M513 475q0 48 -26.5 68.5t-73.5 20.5h-183v-180h183q100 0 100 91zM496 0l-125 252h-141v-252h-140v700h326q49 0 93 -13.5t77 -41.5t52 -69.5t19 -97.5q0 -79 -33.5 -129.5t-100.5 -76.5l134 -272h-161z" unicode="R"/>
<glyph glyph-name="S" horiz-adv-x="661" unicode="S" d="M603 212q0 -50 -16 -91t-50 -70.5t-85.5 -45.5t-123.5 -16q-88 0 -160 34t-112 93l101 90q37 -43 82.5 -61.5t96.5 -18.5q63 0 92.5 18t29.5 58q0 17 -6 29.5t-22.5 23.5t-47.5 21t-80 21q-48 11 -88.5 26t-69.5 38t-45 58t-16 87q0 48 19.5 86t53.5 64.5t79.5 40.5 t97.5 14q82 0 143.5 -29t111.5 -81l-101 -98q-34 35 -72.5 53.5t-86.5 18.5q-28 0 -47 -5.5t-31 -14.5t-17 -20t-5 -23q0 -17 6.5 -28.5t22.5 -20.5t43 -17t69 -18t83.5 -23.5t75 -37.5t54.5 -61t21 -94z"/>
<glyph glyph-name="T" horiz-adv-x="632" unicode="T" d="M386 562v-562h-140v562h-201v138h542v-138h-201z"/>
<glyph glyph-name="U" horiz-adv-x="737" unicode="U" d="M652 309q0 -153 -75 -236.5t-209 -83.5q-63 0 -115.5 21t-89.5 61.5t-57.5 99.5t-20.5 136v393h140v-391q0 -85 38 -134t105 -49t105.5 48t38.5 133v393h140v-391z"/>
<glyph glyph-name="V" d="M425 0h-136l-249 700h155l132 -405q5 -15 10 -31t9.5 -31.5t8 -29.5t5.5 -23q5 20 13.5 52t18.5 63l129 405h153z" unicode="V"/>
<glyph glyph-name="W" horiz-adv-x="881" unicode="W" d="M685 0h-137l-86 360q-8 32 -14.5 66t-9.5 54q-2 -20 -8.5 -54.5t-14.5 -65.5l-88 -360h-131l-146 700h146l61 -341q5 -26 10 -59.5t7 -55.5q4 22 11 55.5t13 59.5l82 341h122l83 -341q6 -26 13 -59.5t11 -55.5q2 22 7 56t10 59l61 341h144z"/>
<glyph glyph-name="X" horiz-adv-x="702" unicode="X" d="M490 0l-63 106q-9 16 -20.5 35.5t-22 39t-19.5 36t-14 26.5q-5 -10 -13.5 -26.5t-19 -35.5t-22 -39t-21.5 -36l-63 -106h-167l222 358l-212 342h167l53 -90q9 -16 20.5 -35.5t22 -39t19.5 -36t14 -26.5q5 10 14 26.5t19.5 35.5t21.5 38.5t21 36.5l53 90h167l-213 -342 l223 -358h-167z"/>
<glyph glyph-name="Y" d="M427 277v-277h-140v274l-265 426h161l99 -166q9 -16 20.5 -35.5t22 -39t19.5 -36t14 -26.5q5 10 14 26.5t19.5 35.5t21.5 38.5t21 36.5l99 166h159z" unicode="Y"/>
<glyph glyph-name="Z" horiz-adv-x="688" unicode="Z" d="M68 0v124l301 359q8 10 19 23t22.5 26t21.5 24t17 18q-11 0 -28.5 -0.5t-37.5 -1t-40.5 -0.5h-35.5h-219v128h527v-124l-298 -359q-8 -10 -19 -23t-22.5 -26t-21.5 -24t-17 -18q10 0 28 0.5t38 1t40.5 0.5h35.5h241v-128h-552z"/>
<glyph glyph-name="bracketleft" horiz-adv-x="415" unicode="[" d="M95 -110v810h257v-110h-122v-590h122v-110h-257z"/>
<glyph glyph-name="backslash" horiz-adv-x="470" unicode="\" d="M330 -90l-326 880h136l326 -880h-136z"/>
<glyph glyph-name="bracketright" horiz-adv-x="415" unicode="]" d="M63 -110v110h122v590h-122v110h257v-810h-257z"/>
<glyph glyph-name="asciicircum" horiz-adv-x="578" unicode="^" d="M389 382l-101 186l-101 -186h-140l187 318h110l187 -318h-142z"/>
<glyph glyph-name="underscore" horiz-adv-x="500" unicode="_" d="M0 -187v115h500v-115h-500z"/>
<glyph glyph-name="grave" horiz-adv-x="500" unicode="`" d="M245 595l-145 160h175l87 -160h-117z"/>
<glyph glyph-name="a" horiz-adv-x="556" unicode="a" d="M356 220q-18 11 -38.5 16.5t-57.5 5.5q-39 0 -59.5 -17t-20.5 -49q0 -28 18 -49t62 -21q34 0 59.5 14.5t36.5 33.5v66zM356 0v35q-19 -20 -50 -33t-68 -13t-72 11.5t-62.5 34.5t-44.5 58t-17 83q0 43 16.5 76t45.5 54.5t67.5 32.5t83.5 11q36 0 60 -6.5t41 -14.5v26 q0 28 -18.5 47.5t-56.5 19.5q-24 0 -42.5 -2t-35 -6t-32.5 -10.5t-34 -16.5l-53 96q23 13 44.5 23t45 16.5t49.5 10t58 3.5q48 0 87 -12t67 -35.5t43.5 -58t15.5 -78.5v-352h-138z"/>
<glyph glyph-name="b" horiz-adv-x="562" unicode="b" d="M380 253q0 81 -24.5 117t-65.5 36q-32 0 -51 -12t-34 -32v-198q33 -45 93 -45q82 0 82 134zM520 256q0 -59 -13.5 -108t-39.5 -84.5t-64 -55t-87 -19.5q-35 0 -63.5 12t-47.5 29v-30h-138v660l138 69v-237q20 17 46.5 30.5t64.5 13.5q42 0 79 -16t65 -50.5t44 -87.5 t16 -126z"/>
<glyph glyph-name="c" horiz-adv-x="537" unicode="c" d="M501 106q-19 -26 -40.5 -47t-47 -37t-57 -24.5t-70.5 -8.5q-51 0 -96 20t-78.5 56t-52.5 86.5t-19 110.5t19 110.5t52.5 87t79.5 56.5t101 20q75 0 125 -32.5t83 -83.5l-91 -92q-23 33 -50.5 54t-69.5 21q-50 0 -79.5 -38t-29.5 -103q0 -63 29.5 -101.5t79.5 -38.5 q41 0 69 17.5t55 49.5z"/>
<glyph glyph-name="d" horiz-adv-x="562" unicode="d" d="M355 361q-33 45 -93 45q-82 0 -82 -134q0 -81 24.5 -117t65.5 -36q32 0 51 12t34 32v198zM355 0v33q-20 -17 -46.5 -30.5t-64.5 -13.5q-42 0 -79 16t-65 50.5t-44 87t-16 126.5q0 59 13.5 108t39.5 84.5t64 55t87 19.5q35 0 63.5 -12t47.5 -29v165l138 69v-729h-138z"/>
<glyph glyph-name="e" horiz-adv-x="538" unicode="e" d="M361 322q-2 18 -8 34.5t-17.5 30t-28.5 21.5t-40 8q-38 0 -60 -27t-26 -67h180zM495 262q0 -15 -0.5 -25.5t-1.5 -18.5h-314q2 -27 12 -46t25 -30.5t33.5 -17t37.5 -5.5q29 0 52 10t38 27l98 -82q-32 -41 -83.5 -63t-104.5 -22q-57 0 -102.5 19.5t-77.5 55t-49.5 86 t-17.5 112.5q0 60 18 110.5t49.5 87t74 56.5t92.5 20q52 0 93.5 -21.5t69.5 -59t43 -87.5t15 -106z"/>
<glyph glyph-name="f" horiz-adv-x="370" unicode="f" d="M338 600q-11 5 -22 8t-26 3q-31 0 -41 -10t-10 -32v-44h89v-130h-89v-395h-138v395h-63v130h63v63q0 74 39 106t111 32q51 0 87 -15v-111z"/>
<glyph glyph-name="g" horiz-adv-x="562" unicode="g" d="M355 361q-33 45 -93 45q-82 0 -82 -134q0 -81 24.5 -117t65.5 -36q32 0 51 12t34 32v198zM493 89q0 -65 -9.5 -114.5t-34.5 -84t-69 -55.5t-113 -28l-49 104q40 6 66.5 14t42.5 22t22 35t6 51q-20 -17 -46.5 -30.5t-64.5 -13.5q-42 0 -79 16t-65 50.5t-44 87t-16 126.5 q0 59 13.5 108t39.5 84.5t64 55t87 19.5q35 0 63.5 -12t47.5 -29v30h138v-436z"/>
<glyph glyph-name="h" horiz-adv-x="584" unicode="h" d="M384 0v284q0 70 -23 96t-66 26t-66.5 -25.5t-23.5 -93.5v-287h-138v660l138 69v-239q18 19 49.5 32.5t73.5 13.5q100 0 147 -64.5t47 -175.5v-296h-138z"/>
<glyph glyph-name="i" horiz-adv-x="282" unicode="i" d="M72 0v525h138v-525h-138zM220 647q0 -32 -23.5 -55.5t-55.5 -23.5t-55.5 23.5t-23.5 55.5t23.5 55.5t55.5 23.5t55.5 -23.5t23.5 -55.5z"/>
<glyph glyph-name="j" horiz-adv-x="282" unicode="j" d="M210 39q0 -55 -9.5 -94.5t-33 -67t-63.5 -44t-100 -26.5l-48 106q36 7 58.5 15t35 21t17.5 33t5 51v492h138v-486zM220 647q0 -32 -23.5 -55.5t-55.5 -23.5t-55.5 23.5t-23.5 55.5t23.5 55.5t55.5 23.5t55.5 -23.5t23.5 -55.5z"/>
<glyph glyph-name="k" horiz-adv-x="551" unicode="k" d="M372 0l-100 242l-67 -83v-159h-138v660l138 69v-279v-27.5t-0.5 -31t-1 -29.5t-0.5 -24q11 16 26.5 38t29.5 39l85 110h163l-135 -167l151 -358h-151z"/>
<glyph glyph-name="l" horiz-adv-x="282" unicode="l" d="M72 0v660l138 69v-729h-138z"/>
<glyph glyph-name="m" horiz-adv-x="881" unicode="m" d="M681 0v284q0 70 -20.5 96t-63.5 26t-64 -25.5t-21 -93.5v-287h-138v284q0 70 -20.5 96t-63.5 26t-64 -25.5t-21 -93.5v-287h-138v525h138v-35q18 19 45.5 32.5t69.5 13.5q50 0 83 -15.5t62 -51.5q27 28 64.5 47.5t102.5 19.5q50 0 85.5 -16.5t58 -48t33 -76t10.5 -99.5 v-296h-138z"/>
<glyph glyph-name="n" horiz-adv-x="584" unicode="n" d="M384 0v284q0 70 -23 96t-66 26t-66.5 -25.5t-23.5 -93.5v-287h-138v525h138v-35q18 19 49.5 32.5t73.5 13.5q100 0 147 -64.5t47 -175.5v-296h-138z"/>
<glyph glyph-name="o" horiz-adv-x="555" unicode="o" d="M375 262q0 60 -24 100.5t-74 40.5t-73.5 -40t-23.5 -101t23.5 -100.5t73.5 -39.5q25 0 43.5 11.5t30.5 31t18 45t6 52.5zM515 262q0 -60 -18 -110.5t-49.5 -86.5t-75.5 -56t-95 -20t-94.5 20t-75 56t-49.5 86.5t-18 110.5t18 110.5t49.5 87t75 56.5t94.5 20t95 -20 t75.5 -56.5t49.5 -87t18 -110.5z"/>
<glyph glyph-name="p" horiz-adv-x="562" unicode="p" d="M380 253q0 81 -24.5 117t-65.5 36q-32 0 -51 -12t-34 -32v-198q33 -45 93 -45q82 0 82 134zM520 256q0 -59 -13.5 -108t-39.5 -84.5t-64 -55t-87 -19.5q-35 0 -63.5 12t-47.5 29v-154l-138 -69v718h138v-33q20 17 46.5 30.5t64.5 13.5q42 0 79 -16t65 -50.5t44 -87.5 t16 -126z"/>
<glyph glyph-name="q" horiz-adv-x="562" unicode="q" d="M355 361q-33 45 -93 45q-82 0 -82 -134q0 -81 24.5 -117t65.5 -36q32 0 51 12t34 32v198zM355 -193v226q-20 -17 -46.5 -30.5t-64.5 -13.5q-42 0 -79 16t-65 50.5t-44 87t-16 126.5q0 59 13.5 108t39.5 84.5t64 55t87 19.5q35 0 63.5 -12t47.5 -29v30h138v-649z"/>
<glyph glyph-name="r" horiz-adv-x="428" unicode="r" d="M374 364q-17 15 -37 24.5t-43 9.5q-20 0 -36.5 -5t-28 -18t-18 -35t-6.5 -56v-284h-138v525h138v-35q18 19 44.5 32.5t63.5 13.5q34 0 58.5 -11.5t38.5 -25.5z"/>
<glyph glyph-name="s" horiz-adv-x="537" unicode="s" d="M482 153q0 -45 -17 -76.5t-46 -51t-68 -28t-83 -8.5q-63 0 -120.5 16.5t-99.5 44.5l46 105q42 -23 86.5 -35.5t95.5 -12.5q41 0 55.5 10t14.5 30q0 18 -16.5 29t-60.5 24q-47 14 -85.5 28.5t-65.5 34t-41.5 47.5t-14.5 70q0 41 15.5 70.5t43.5 48.5t66.5 28t84.5 9 q50 0 101 -14t93 -37l-44 -109q-39 21 -79.5 31.5t-73.5 10.5q-42 0 -56.5 -8.5t-14.5 -25.5q0 -8 4 -14.5t15.5 -13t33 -14.5t56.5 -19q35 -12 67 -25t56 -32t38 -46.5t14 -66.5z"/>
<glyph glyph-name="t" horiz-adv-x="442" unicode="t" d="M360 21q-17 -14 -46 -23t-61 -9t-58 11.5t-44 32.5t-28 50t-10 64v248h-88v130h88v135l138 69v-204h126v-130h-126v-211q0 -38 13 -50.5t38 -12.5q19 0 35.5 9t42.5 31z"/>
<glyph glyph-name="u" horiz-adv-x="584" unicode="u" d="M379 0v35q-18 -19 -49.5 -32.5t-73.5 -13.5q-101 0 -147.5 64.5t-46.5 175.5v296h138v-284q0 -35 6 -58.5t17 -37.5t28 -20t38 -6q43 0 66.5 25.5t23.5 93.5v287h138v-525h-138z"/>
<glyph glyph-name="v" horiz-adv-x="570" unicode="v" d="M356 0h-142l-189 525h152l77 -243q10 -30 19 -63t14 -52q5 20 14 52t19 63l77 243h148z"/>
<glyph glyph-name="w" horiz-adv-x="742" unicode="w" d="M566 0h-115l-52 206q-4 15 -8 33t-8 35t-7.5 32t-4.5 24q-2 -9 -5 -24t-7 -32t-8 -35t-8 -33l-52 -206h-115l-151 525h140l46 -194q3 -15 7 -32t7.5 -33.5t6 -31t4.5 -23.5q3 20 11.5 54.5t16.5 65.5l52 194h114l52 -194q8 -31 16.5 -65.5t11.5 -54.5q1 9 4 23.5t6.5 31 t7.5 33.5t7 32l46 194h136z"/>
<glyph glyph-name="x" horiz-adv-x="574" unicode="x" d="M388 0l-53 87q-14 23 -27 46.5t-21 38.5q-7 -15 -20.5 -38.5t-27.5 -46.5l-53 -87h-164l186 284l-158 241h164l25 -43q14 -23 27 -46.5t21 -38.5q8 15 21 38.5t27 46.5l25 43h164l-158 -241l186 -284h-164z"/>
<glyph glyph-name="y" horiz-adv-x="590" unicode="y" d="M295 -185h-136l70 185l-204 525h152l86 -253q11 -30 20 -63t14 -52q5 20 14 52t20 63l86 253h148z"/>
<glyph glyph-name="z" horiz-adv-x="554" unicode="z" d="M60 0v100l191 227q16 19 35.5 41t30.5 34q-7 0 -17.5 -0.5t-22.5 -1t-24 -0.5h-22h-154v125h417v-100l-185 -227q-16 -20 -35 -41.5t-30 -33.5q7 0 17.5 0.5t22.5 1t24 0.5h22h164v-125h-434z"/>
<glyph glyph-name="braceleft" horiz-adv-x="460" unicode="{" d="M407 -110q-138 0 -201.5 53.5t-63.5 157.5v71q0 36 -15.5 52.5t-44.5 16.5h-22v112h22q29 0 44.5 16.5t15.5 52.5v72q0 104 63.5 157.5t201.5 53.5v-91q-38 -4 -62 -13t-38 -25t-19.5 -38.5t-5.5 -53.5v-31q0 -41 -5.5 -67.5t-17.5 -44t-30 -27.5t-42 -17q24 -7 42 -17 t30 -27.5t17.5 -44.5t5.5 -67v-30q0 -31 5.5 -53.5t19.5 -38.5t38 -25t62 -13v-91z"/>
<glyph glyph-name="bar" horiz-adv-x="285" unicode="|" d="M80 -185v985h125v-985h-125z"/>
<glyph glyph-name="braceright" horiz-adv-x="460" unicode="}" d="M378 242q-29 0 -44.5 -16.5t-15.5 -52.5v-72q0 -104 -63.5 -157.5t-201.5 -53.5v91q37 4 61.5 13t38.5 25t19.5 38.5t5.5 53.5v31q0 40 5.5 67t17.5 44.5t30 27.5t42 17q-24 7 -42 17t-30 27.5t-17.5 44t-5.5 67.5v30q0 31 -5.5 53.5t-19.5 38.5t-38.5 25t-61.5 13v91 q138 0 201.5 -53.5t63.5 -157.5v-71q0 -36 15.5 -52.5t44.5 -16.5h22v-112h-22z"/>
<glyph glyph-name="asciitilde" horiz-adv-x="562" unicode="~" d="M520 424q-27 -69 -62 -110t-91 -41q-31 0 -51 8.5t-45 25.5q-29 20 -46.5 30t-31.5 10q-11 0 -18.5 -2.5t-14.5 -10.5t-15.5 -22t-20.5 -36l-82 42q27 69 62 110t91 41q31 0 51 -8.5t45 -25.5q32 -22 48 -31t30 -9q10 0 18 2.5t15 10.5t15.5 21.5t20.5 36.5z"/>
<glyph glyph-name="nonbreakingspace" horiz-adv-x="145" unicode=" "/>
<glyph glyph-name="exclamdown" horiz-adv-x="340" unicode="¡" d="M100 0v288l23 192h94l23 -192v-288h-140zM255 626q0 -35 -25 -60t-60 -25t-60 25t-25 60t25 60t60 25t60 -25t25 -60z"/>
<glyph glyph-name="cent" horiz-adv-x="537" unicode="¢" d="M501 200q-30 -41 -67 -70.5t-89 -40.5v-100h-135v106q-37 12 -68.5 36t-54 58t-35 76t-12.5 91q0 48 12 90t34.5 76t54 58t69.5 37v83h135v-75q53 -11 90.5 -40.5t64.5 -70.5l-91 -86q-23 33 -50.5 54t-69.5 21q-50 0 -79.5 -37.5t-29.5 -109.5q0 -69 29.5 -107.5 t79.5 -38.5q41 0 69 17.5t55 49.5z"/>
<glyph glyph-name="sterling" horiz-adv-x="670" unicode="£" d="M540 513q-36 32 -81 47.5t-92 15.5q-51 0 -76 -18t-25 -50q0 -19 8 -36.5t17 -33.5q6 -11 14.5 -27t12.5 -28h153v-113h-143q-4 -45 -19 -78.5t-47 -71.5h348v-120h-522v102q42 34 66.5 75.5t30.5 92.5h-97v113h79q-6 12 -13 24t-12 21q-11 20 -20 46.5t-9 52.5 q0 89 67 136.5t189 47.5q72 0 137.5 -24t117.5 -71z"/>
<glyph glyph-name="yen" horiz-adv-x="684" unicode="¥" d="M409 272v-49h163v-118h-163v-105h-134v105h-163v118h163v46l-253 431h161l92 -166q9 -15 19 -34.5l20 -39t17.5 -36.5t11.5 -27q4 10 12 26.5t17.5 36t19.5 39t19 35.5l92 166h159z"/>
<glyph glyph-name="brokenbar" horiz-adv-x="800" unicode="¦" d="M612 218q-9 -5 -16.5 -4.5t-11.5 2.5q-14 8 -14 24q0 5 2 12l20 45h-141v-124l48 19q6 2 12 2q13 0 21 -13q2 -4 3 -12t-6 -16l-129 -168l-132 168q-5 8 -4.5 16t2.5 12q9 13 23 13q6 0 12 -2l46 -19v124h-139l20 -46q2 -6 2 -12q0 -15 -14 -23q-4 -2 -11.5 -2.5 t-15.5 4.5l-169 132l169 129q8 7 15.5 6t11.5 -3q11 -6 13 -14t-1 -19l-20 -48h139v126l-46 -19q-12 -5 -20.5 -1.5t-14.5 12.5q-2 4 -2.5 12t4.5 16l132 168l129 -168q7 -8 6 -16t-3 -12q-8 -13 -21 -13q-5 0 -12 2l-48 19v-126h141l-20 48q-3 11 -1 19t13 14q4 2 11 2.5 t17 -5.5l168 -129z"/>
<glyph glyph-name="section" horiz-adv-x="700" unicode="§" d="M511 241q0 21 -12 36.5t-31.5 27.5t-44.5 21t-51 18q-36 12 -66 23.5t-53 22.5q-32 -14 -48 -34t-16 -50q0 -21 12 -36.5t31.5 -27.5t44.5 -21t51 -18q36 -12 66 -23.5t53 -22.5q32 14 48 34t16 50zM645 251q0 -31 -8.5 -56t-23.5 -45.5t-35 -36t-43 -27.5q20 -33 20 -87 q0 -35 -13.5 -64.5t-39.5 -51.5t-65 -34.5t-90 -12.5q-61 0 -116 18t-99 50l69 96q38 -26 80.5 -37.5t74.5 -11.5q40 0 55 13.5t15 33.5q0 12 -6.5 21t-24.5 18t-50.5 20.5t-84.5 28.5q-50 16 -88 34.5t-64 43t-39.5 56.5t-13.5 76q0 62 31.5 101.5t77.5 63.5q-19 34 -19 87 q0 34 13.5 64t39.5 52t65 34.5t90 12.5q61 0 116 -18t99 -50l-69 -96q-38 26 -80.5 37.5t-74.5 11.5q-40 0 -55 -13.5t-15 -33.5q0 -12 6 -21t24 -18t50.5 -20.5t85.5 -28.5q49 -17 87.5 -35t64.5 -42.5t39.5 -56.5t13.5 -76z"/>
<glyph glyph-name="dieresis" horiz-adv-x="500" unicode="¨" d="M220 672q0 -31 -23 -54t-55 -23t-55 23t-23 54q0 16 6.5 30.5t17 25t24.5 16.5t30 6t30 -6t24.5 -16.5t17 -25t6.5 -30.5zM436 672q0 -31 -23 -54t-54 -23q-16 0 -30.5 6.5t-25 17t-17 24.5t-6.5 29q0 32 23.5 55t55.5 23q15 0 29 -6t24.5 -16.5t17 -25t6.5 -30.5z"/>
<glyph glyph-name="copyright" horiz-adv-x="836" unicode="©" d="M489 425q-12 21 -27.5 32.5t-38.5 11.5q-38 0 -58.5 -30t-20.5 -87q0 -56 21 -86t59 -30q22 0 38.5 13t32.5 38l70 -48q-25 -43 -57.5 -66.5t-85.5 -23.5q-39 0 -70.5 14.5t-54 40.5t-35 63.5t-12.5 84.5q0 45 13 82.5t36 64.5t55 42t70 15q56 0 90.5 -24.5t53.5 -62.5z M715 350q0 63 -22.5 117.5t-62.5 94.5t-94.5 62.5t-117.5 22.5t-117.5 -22.5t-94.5 -62.5t-62.5 -94.5t-22.5 -117.5t22.5 -117.5t62.5 -94.5t94.5 -62.5t117.5 -22.5t117.5 22.5t94.5 62.5t62.5 94.5t22.5 117.5zM779 350q0 -77 -27.5 -143t-76 -114.5t-114.5 -76 t-143 -27.5t-143 27.5t-114.5 76t-76 114.5t-27.5 143t27.5 143t76 114.5t114.5 76t143 27.5t143 -27.5t114.5 -76t76 -114.5t27.5 -143z"/>
<glyph glyph-name="ordfeminine" horiz-adv-x="477" unicode="ª" d="M306 456q-16 9 -33.5 13t-46.5 4q-67 0 -67 -54q0 -23 15 -41t52 -18q27 0 48.5 13t31.5 28v55zM306 276v31q-17 -18 -42.5 -28.5t-55.5 -10.5t-58.5 9t-51 28t-36 47t-13.5 67q0 35 13.5 61.5t36.5 44t55 26.5t68 9q29 0 49.5 -5t34.5 -12v21q0 23 -16 39.5t-47 16.5 q-38 0 -63 -6t-55 -23l-42 78q37 20 73 31t87 11q78 0 125 -38.5t47 -110.5v-286h-109z"/>
<glyph glyph-name="guillemotleft" horiz-adv-x="628" unicode="«" d="M193 0l-163 262l163 263h143l-158 -262l158 -263h-143zM445 0l-163 262l163 263h143l-158 -262l158 -263h-143z"/>
<glyph glyph-name="logicalnot" horiz-adv-x="650" unicode="¬" d="M427 194q-10 -7 -20 -7q-1 0 -6 0.5t-10 4.5q-11 8 -14.5 17.5t1.5 24.5l14 47h-347v130h347l-14 49q-4 14 -1 23t14 17q5 4 11 4l5 1q9 0 20 -8l203 -150z"/>
<glyph glyph-name="registered" horiz-adv-x="836" unicode="®" d="M505 428q0 26 -15 38t-41 12h-94v-101h94q56 0 56 51zM590 430q0 -51 -23 -77t-55 -38l76 -155h-94l-71 144h-68v-144h-83v394h183q57 0 96 -30.5t39 -93.5zM715 350q0 63 -22.5 117.5t-62.5 94.5t-94.5 62.5t-117.5 22.5t-117.5 -22.5t-94.5 -62.5t-62.5 -94.5 t-22.5 -117.5t22.5 -117.5t62.5 -94.5t94.5 -62.5t117.5 -22.5t117.5 22.5t94.5 62.5t62.5 94.5t22.5 117.5zM779 350q0 -77 -27.5 -143t-76 -114.5t-114.5 -76t-143 -27.5t-143 27.5t-114.5 76t-76 114.5t-27.5 143t27.5 143t76 114.5t114.5 76t143 27.5t143 -27.5 t114.5 -76t76 -114.5t27.5 -143z"/>
<glyph glyph-name="macron" horiz-adv-x="500" unicode="¯" d="M105 610v105h290v-105h-290z"/>
<glyph glyph-name="degree" horiz-adv-x="486" unicode="°" d="M336 514q0 19 -7 36t-19.5 29.5t-29.5 20t-37 7.5t-36.5 -7.5t-29.5 -20t-20 -29.5t-7 -36q0 -41 27 -68t66 -27q40 0 66.5 27t26.5 68zM441 514q0 -42 -15 -78.5t-42 -63.5t-63 -42t-78 -15t-78 15t-62.5 42t-42 63.5t-15.5 78.5q0 41 15.5 77t42 62.5t62.5 42t78 15.5 t78 -15.5t63 -42t42 -62.5t15 -77z"/>
<glyph glyph-name="plusminus" horiz-adv-x="800" unicode="±" d="M612 218q-9 -5 -16.5 -4.5t-11.5 2.5q-14 8 -14 24q0 5 2 12l20 45h-141v-124l48 19q6 2 12 2q13 0 21 -13q2 -4 3 -12t-6 -16l-129 -168l-132 168q-5 8 -4.5 16t2.5 12q9 13 23 13q6 0 12 -2l46 -19v124h-139l20 -46q2 -6 2 -12q0 -15 -14 -23q-4 -2 -11.5 -2.5 t-15.5 4.5l-169 132l169 129q8 7 15.5 6t11.5 -3q11 -6 13 -14t-1 -19l-20 -48h139v126l-46 -19q-12 -5 -20.5 -1.5t-14.5 12.5q-2 4 -2.5 12t4.5 16l132 168l129 -168q7 -8 6 -16t-3 -12q-8 -13 -21 -13q-5 0 -12 2l-48 19v-126h141l-20 48q-3 11 -1 19t13 14q4 2 11 2.5 t17 -5.5l168 -129z"/>
<glyph glyph-name="twosuperior" horiz-adv-x="800" unicode="²" d="M612 218q-9 -5 -16.5 -4.5t-11.5 2.5q-14 8 -14 24q0 5 2 12l20 45h-141v-124l48 19q6 2 12 2q13 0 21 -13q2 -4 3 -12t-6 -16l-129 -168l-132 168q-5 8 -4.5 16t2.5 12q9 13 23 13q6 0 12 -2l46 -19v124h-139l20 -46q2 -6 2 -12q0 -15 -14 -23q-4 -2 -11.5 -2.5 t-15.5 4.5l-169 132l169 129q8 7 15.5 6t11.5 -3q11 -6 13 -14t-1 -19l-20 -48h139v126l-46 -19q-12 -5 -20.5 -1.5t-14.5 12.5q-2 4 -2.5 12t4.5 16l132 168l129 -168q7 -8 6 -16t-3 -12q-8 -13 -21 -13q-5 0 -12 2l-48 19v-126h141l-20 48q-3 11 -1 19t13 14q4 2 11 2.5 t17 -5.5l168 -129z"/>
<glyph glyph-name="threesuperior" horiz-adv-x="800" unicode="³" d="M612 218q-9 -5 -16.5 -4.5t-11.5 2.5q-14 8 -14 24q0 5 2 12l20 45h-141v-124l48 19q6 2 12 2q13 0 21 -13q2 -4 3 -12t-6 -16l-129 -168l-132 168q-5 8 -4.5 16t2.5 12q9 13 23 13q6 0 12 -2l46 -19v124h-139l20 -46q2 -6 2 -12q0 -15 -14 -23q-4 -2 -11.5 -2.5 t-15.5 4.5l-169 132l169 129q8 7 15.5 6t11.5 -3q11 -6 13 -14t-1 -19l-20 -48h139v126l-46 -19q-12 -5 -20.5 -1.5t-14.5 12.5q-2 4 -2.5 12t4.5 16l132 168l129 -168q7 -8 6 -16t-3 -12q-8 -13 -21 -13q-5 0 -12 2l-48 19v-126h141l-20 48q-3 11 -1 19t13 14q4 2 11 2.5 t17 -5.5l168 -129z"/>
<glyph glyph-name="acute" horiz-adv-x="500" unicode="´" d="M255 595h-117l87 160h175z"/>
<glyph glyph-name="mu" horiz-adv-x="800" unicode="µ" d="M577 194q-10 -7 -20 -7q-1 0 -6 0.5t-10 4.5q-11 8 -14.5 17.5t1.5 24.5l14 47h-284l14 -49q4 -14 1 -23t-14 -17q-5 -4 -11 -4l-5 -1q-9 0 -20 8l-203 150l203 153q10 7 20 7q1 0 6 -0.5t10 -4.5q11 -8 14.5 -17.5t-1.5 -24.5l-14 -47h284l-14 49q-4 14 -1 23t14 17 q5 4 11 4l5 1q9 0 20 -8l203 -150z"/>
<glyph glyph-name="paragraph" horiz-adv-x="724" unicode="¶" d="M521 -185v779h-64v-779h-114v446h-69q-46 0 -87.5 14.5t-72.5 42.5t-49 69t-18 94q0 52 18.5 93t49.5 69t72 42.5t87 14.5h361v-885h-114z"/>
<glyph glyph-name="periodcentered" horiz-adv-x="272" unicode="·" d="M230 367q0 -19 -7.5 -36t-20.5 -30t-30 -20.5t-36 -7.5t-36 7.5t-30 20.5t-20.5 30t-7.5 36t7.5 36t20.5 30t30 20.5t36 7.5t36 -7.5t30 -20.5t20.5 -30t7.5 -36z"/>
<glyph glyph-name="cedilla" horiz-adv-x="500" unicode="¸" d="M377 -106q0 -45 -32.5 -66t-86.5 -21q-41 0 -74 10.5t-57 25.5l21 38q23 -12 46 -18t43 -6q54 0 54 34q0 15 -9.5 20.5t-21.5 5.5q-10 0 -16 -1.5t-14 -5.5l-36 14l27 113h56l-17 -79q6 3 15.5 5t23.5 2q32 0 55 -17t23 -54z"/>
<glyph glyph-name="onesuperior" horiz-adv-x="800" unicode="¹" d="M612 218q-9 -5 -16.5 -4.5t-11.5 2.5q-14 8 -14 24q0 5 2 12l20 45h-141v-124l48 19q6 2 12 2q13 0 21 -13q2 -4 3 -12t-6 -16l-129 -168l-132 168q-5 8 -4.5 16t2.5 12q9 13 23 13q6 0 12 -2l46 -19v124h-139l20 -46q2 -6 2 -12q0 -15 -14 -23q-4 -2 -11.5 -2.5 t-15.5 4.5l-169 132l169 129q8 7 15.5 6t11.5 -3q11 -6 13 -14t-1 -19l-20 -48h139v126l-46 -19q-12 -5 -20.5 -1.5t-14.5 12.5q-2 4 -2.5 12t4.5 16l132 168l129 -168q7 -8 6 -16t-3 -12q-8 -13 -21 -13q-5 0 -12 2l-48 19v-126h141l-20 48q-3 11 -1 19t13 14q4 2 11 2.5 t17 -5.5l168 -129z"/>
<glyph glyph-name="ordmasculine" horiz-adv-x="491" unicode="º" d="M324 489q0 49 -19.5 81.5t-59.5 32.5t-59.5 -32t-19.5 -82t19.5 -81.5t59.5 -31.5q20 0 35 9.5t24.5 25t14.5 36t5 42.5zM438 489q0 -49 -14.5 -89.5t-40.5 -70t-61 -45.5t-77 -16t-77 16t-60.5 45.5t-40 70t-14.5 89.5t14.5 89.5t40 70t60.5 46t77 16.5t77 -16.5t61 -46 t40.5 -70t14.5 -89.5z"/>
<glyph glyph-name="guillemotright" horiz-adv-x="628" unicode="»" d="M183 0h-143l158 262l-158 263h143l163 -262zM435 0h-143l158 262l-158 263h143l163 -262z"/>
<glyph glyph-name="onequarter" horiz-adv-x="800" unicode="¼" d="M612 218q-9 -5 -16.5 -4.5t-11.5 2.5q-14 8 -14 24q0 5 2 12l20 45h-141v-124l48 19q6 2 12 2q13 0 21 -13q2 -4 3 -12t-6 -16l-129 -168l-132 168q-5 8 -4.5 16t2.5 12q9 13 23 13q6 0 12 -2l46 -19v124h-139l20 -46q2 -6 2 -12q0 -15 -14 -23q-4 -2 -11.5 -2.5 t-15.5 4.5l-169 132l169 129q8 7 15.5 6t11.5 -3q11 -6 13 -14t-1 -19l-20 -48h139v126l-46 -19q-12 -5 -20.5 -1.5t-14.5 12.5q-2 4 -2.5 12t4.5 16l132 168l129 -168q7 -8 6 -16t-3 -12q-8 -13 -21 -13q-5 0 -12 2l-48 19v-126h141l-20 48q-3 11 -1 19t13 14q4 2 11 2.5 t17 -5.5l168 -129z"/>
<glyph glyph-name="onehalf" horiz-adv-x="800" unicode="½" d="M612 218q-9 -5 -16.5 -4.5t-11.5 2.5q-14 8 -14 24q0 5 2 12l20 45h-141v-124l48 19q6 2 12 2q13 0 21 -13q2 -4 3 -12t-6 -16l-129 -168l-132 168q-5 8 -4.5 16t2.5 12q9 13 23 13q6 0 12 -2l46 -19v124h-139l20 -46q2 -6 2 -12q0 -15 -14 -23q-4 -2 -11.5 -2.5 t-15.5 4.5l-169 132l169 129q8 7 15.5 6t11.5 -3q11 -6 13 -14t-1 -19l-20 -48h139v126l-46 -19q-12 -5 -20.5 -1.5t-14.5 12.5q-2 4 -2.5 12t4.5 16l132 168l129 -168q7 -8 6 -16t-3 -12q-8 -13 -21 -13q-5 0 -12 2l-48 19v-126h141l-20 48q-3 11 -1 19t13 14q4 2 11 2.5 t17 -5.5l168 -129z"/>
<glyph glyph-name="threequarters" horiz-adv-x="800" unicode="¾" d="M612 218q-9 -5 -16.5 -4.5t-11.5 2.5q-14 8 -14 24q0 5 2 12l20 45h-141v-124l48 19q6 2 12 2q13 0 21 -13q2 -4 3 -12t-6 -16l-129 -168l-132 168q-5 8 -4.5 16t2.5 12q9 13 23 13q6 0 12 -2l46 -19v124h-139l20 -46q2 -6 2 -12q0 -15 -14 -23q-4 -2 -11.5 -2.5 t-15.5 4.5l-169 132l169 129q8 7 15.5 6t11.5 -3q11 -6 13 -14t-1 -19l-20 -48h139v126l-46 -19q-12 -5 -20.5 -1.5t-14.5 12.5q-2 4 -2.5 12t4.5 16l132 168l129 -168q7 -8 6 -16t-3 -12q-8 -13 -21 -13q-5 0 -12 2l-48 19v-126h141l-20 48q-3 11 -1 19t13 14q4 2 11 2.5 t17 -5.5l168 -129z"/>
<glyph glyph-name="questiondown" horiz-adv-x="584" unicode="¿" d="M562 105q-46 -48 -111.5 -82t-153.5 -34q-57 0 -105 12.5t-82 37.5t-53 63.5t-19 90.5q0 35 9 62t23.5 47t32.5 33.5t36 22.5q31 15 51.5 27.5t32.5 26t17.5 30t6.5 38.5h137q0 -36 -6 -65t-22 -54t-43.5 -46.5t-69.5 -40.5q-38 -17 -51.5 -32.5t-13.5 -42.5 q0 -35 27.5 -54t91.5 -19q57 0 99 24t76 60zM400 626q0 -35 -25 -60t-60 -25t-60 25t-25 60t25 60t60 25t60 -25t25 -60z"/>
<glyph glyph-name="Agrave" horiz-adv-x="750" unicode="À" d="M408 416q-11 31 -20.5 60t-14.5 49q-5 -20 -14.5 -49t-20.5 -60l-45 -127h160zM556 0l-55 156h-256l-55 -156h-150l268 700h136l266 -700h-154zM330 745l-145 160h175l87 -160h-117z"/>
<glyph glyph-name="Aacute" horiz-adv-x="750" unicode="Á" d="M408 416q-11 31 -20.5 60t-14.5 49q-5 -20 -14.5 -49t-20.5 -60l-45 -127h160zM556 0l-55 156h-256l-55 -156h-150l268 700h136l266 -700h-154zM410 745h-117l87 160h175z"/>
<glyph glyph-name="Acircumflex" horiz-adv-x="750" unicode="Â" d="M408 416q-11 31 -20.5 60t-14.5 49q-5 -20 -14.5 -49t-20.5 -60l-45 -127h160zM556 0l-55 156h-256l-55 -156h-150l268 700h136l266 -700h-154zM473 745l-100 75l-100 -75h-91l122 160h140l122 -160h-93z"/>
<glyph glyph-name="Atilde" horiz-adv-x="750" unicode="Ã" d="M408 416q-11 31 -20.5 60t-14.5 49q-5 -20 -14.5 -49t-20.5 -60l-45 -127h160zM556 0l-55 156h-256l-55 -156h-150l268 700h136l266 -700h-154zM573 886q0 -67 -32 -105.5t-83 -38.5q-16 0 -28 1.5t-23.5 5.5t-23 9.5t-26.5 14.5q-23 13 -32.5 16.5t-19.5 3.5 q-14 0 -21.5 -11t-12.5 -37h-90q0 67 32 105.5t83 38.5q16 0 28 -1.5t23 -5.5t23 -9.5t27 -14.5q23 -13 32.5 -16.5t19.5 -3.5q14 0 21.5 11t12.5 37h90z"/>
<glyph glyph-name="Adieresis" horiz-adv-x="750" unicode="Ä" d="M408 416q-11 31 -20.5 60t-14.5 49q-5 -20 -14.5 -49t-20.5 -60l-45 -127h160zM556 0l-55 156h-256l-55 -156h-150l268 700h136l266 -700h-154zM344 822q0 -31 -23 -54t-55 -23t-55 23t-23 54q0 16 6.5 30.5t17 25t24.5 16.5t30 6t30 -6t24.5 -16.5t17 -25t6.5 -30.5z M560 822q0 -31 -23 -54t-54 -23q-16 0 -30.5 6.5t-25 17t-17 24.5t-6.5 29q0 32 23.5 55t55.5 23q15 0 29 -6t24.5 -16.5t17 -25t6.5 -30.5z"/>
<glyph glyph-name="Aring" horiz-adv-x="750" unicode="Å" d="M408 416q-11 31 -20.5 60t-14.5 49q-5 -20 -14.5 -49t-20.5 -60l-45 -127h160zM435 745q0 26 -17 43t-42 17t-42 -17t-17 -43t17 -43t42 -17t42 17t17 43zM556 0l-55 156h-256l-55 -156h-150l246 643q-21 18 -33 44t-12 58q0 29 10.5 53.5t28.5 42.5t42.5 28.5t53.5 10.5 t53.5 -10.5t42.5 -28.5t28.5 -42.5t10.5 -53.5q0 -32 -12 -58t-34 -44l245 -643h-154z"/>
<glyph glyph-name="AE" horiz-adv-x="1038" unicode="Æ" d="M506 522q-6 -12 -15.5 -29t-20.5 -35.5t-22.5 -36.5t-21.5 -33l-91 -140h169v128q0 15 0.5 36t0.5 42t0.5 39t0.5 29zM504 0v125h-249l-81 -125h-160l470 700h480v-134h-326v-126h181v-132h-181v-174h341v-134h-475z"/>
<glyph glyph-name="Ccedilla" horiz-adv-x="670" unicode="Ç" d="M490 496q-19 36 -49.5 56t-78.5 20q-39 0 -70 -16.5t-52 -46t-32 -70t-11 -89.5q0 -47 11 -87.5t32.5 -70.5t52.5 -47t70 -17q48 0 78.5 21t58.5 68l118 -70q-35 -73 -97 -114.5t-154 -43.5l-7 -31q6 3 15.5 5t23.5 2q32 0 55 -17t23 -54q0 -45 -32.5 -66t-86.5 -21 q-41 0 -74 10.5t-57 25.5l21 38q23 -12 46 -18t43 -6q54 0 54 34q0 15 -9.5 20.5t-21.5 5.5q-10 0 -16 -1.5t-14 -5.5l-36 14l16 68q-58 9 -105.5 37.5t-81 74.5t-52 108.5t-18.5 137.5q0 80 23 146.5t64 114t98 74t126 26.5q49 0 89 -11.5t71.5 -32t55 -49t40.5 -62.5z"/>
<glyph glyph-name="Egrave" horiz-adv-x="650" unicode="È" d="M90 0v700h486v-137h-346v-121h201v-136h-201v-169h361v-137h-501zM292 745l-145 160h175l87 -160h-117z"/>
<glyph glyph-name="Eacute" horiz-adv-x="650" unicode="É" d="M90 0v700h486v-137h-346v-121h201v-136h-201v-169h361v-137h-501zM372 745h-117l87 160h175z"/>
<glyph glyph-name="Ecircumflex" horiz-adv-x="650" unicode="Ê" d="M90 0v700h486v-137h-346v-121h201v-136h-201v-169h361v-137h-501zM435 745l-100 75l-100 -75h-91l122 160h140l122 -160h-93z"/>
<glyph glyph-name="Edieresis" horiz-adv-x="650" unicode="Ë" d="M90 0v700h486v-137h-346v-121h201v-136h-201v-169h361v-137h-501zM306 822q0 -31 -23 -54t-55 -23t-55 23t-23 54q0 16 6.5 30.5t17 25t24.5 16.5t30 6t30 -6t24.5 -16.5t17 -25t6.5 -30.5zM522 822q0 -31 -23 -54t-54 -23q-16 0 -30.5 6.5t-25 17t-17 24.5t-6.5 29 q0 32 23.5 55t55.5 23q15 0 29 -6t24.5 -16.5t17 -25t6.5 -30.5z"/>
<glyph glyph-name="Igrave" horiz-adv-x="340" unicode="Ì" d="M116 745l-145 160h175l87 -160h-117zM100 0v700h140v-700h-140z"/>
<glyph glyph-name="Iacute" horiz-adv-x="340" unicode="Í" d="M100 0v700h140v-700h-140zM218 745h-117l87 160h175z"/>
<glyph glyph-name="Icircumflex" horiz-adv-x="340" unicode="Î" d="M100 0v700h140v-700h-140zM391 735l-100 75l-100 -75h-91l122 160h140l122 -160h-93z"/>
<glyph glyph-name="Idieresis" horiz-adv-x="340" unicode="Ï" d="M100 0v700h140v-700h-140zM256 817q0 -31 -23 -54t-55 -23t-55 23t-23 54q0 16 6.5 30.5t17 25t24.5 16.5t30 6t30 -6t24.5 -16.5t17 -25t6.5 -30.5zM472 817q0 -31 -23 -54t-54 -23q-16 0 -30.5 6.5t-25 17t-17 24.5t-6.5 29q0 32 23.5 55t55.5 23q15 0 29 -6 t24.5 -16.5t17 -25t6.5 -30.5z"/>
<glyph glyph-name="Eth" horiz-adv-x="722" unicode="Ð" d="M528 350q0 107 -49 160.5t-160 53.5h-78v-141h94v-115h-94v-172h73q55 0 95.5 15.5t66.5 43.5t39 67.5t13 87.5zM672 350q0 -92 -30.5 -158.5t-81 -109t-115 -62.5t-131.5 -20h-209v308h-65v115h65v277h219q75 0 138.5 -18.5t110 -60.5t73 -108.5t26.5 -162.5z"/>
<glyph glyph-name="Ntilde" horiz-adv-x="747" unicode="Ñ" d="M532 0l-257 382q-13 20 -27.5 42.5t-21.5 36.5q0 -10 0.5 -29.5t0.5 -42t0.5 -44.5t0.5 -37v-308h-138v700h134l248 -370q13 -20 27.5 -42.5t21.5 -36.5q0 10 -0.5 29.5t-0.5 42t-0.5 44.5t-0.5 37v296h138v-700h-125zM573 886q0 -67 -32 -105.5t-83 -38.5q-16 0 -28 1.5 t-23.5 5.5t-23 9.5t-26.5 14.5q-23 13 -32.5 16.5t-19.5 3.5q-14 0 -21.5 -11t-12.5 -37h-90q0 67 32 105.5t83 38.5q16 0 28 -1.5t23 -5.5t23 -9.5t27 -14.5q23 -13 32.5 -16.5t19.5 -3.5q14 0 21.5 11t12.5 37h90z"/>
<glyph glyph-name="Ograve" d="M517 350q0 47 -9 87.5t-28.5 70.5t-50 47t-72.5 17t-72.5 -17t-50 -47t-28.5 -70.5t-9 -87.5t9 -87.5t28.5 -70.5t50 -47t72.5 -17t72.5 17t50 47t28.5 70.5t9 87.5zM661 350q0 -80 -20.5 -146.5t-59.5 -114t-95.5 -74t-128.5 -26.5t-128.5 26.5t-95.5 74t-59.5 114 t-20.5 146.5t20.5 146.5t59.5 114t95.5 74t128.5 26.5t128.5 -26.5t95.5 -74t59.5 -114t20.5 -146.5zM311 745l-145 160h175l87 -160h-117z" unicode="Ò"/>
<glyph glyph-name="Oacute" d="M517 350q0 47 -9 87.5t-28.5 70.5t-50 47t-72.5 17t-72.5 -17t-50 -47t-28.5 -70.5t-9 -87.5t9 -87.5t28.5 -70.5t50 -47t72.5 -17t72.5 17t50 47t28.5 70.5t9 87.5zM661 350q0 -80 -20.5 -146.5t-59.5 -114t-95.5 -74t-128.5 -26.5t-128.5 26.5t-95.5 74t-59.5 114 t-20.5 146.5t20.5 146.5t59.5 114t95.5 74t128.5 26.5t128.5 -26.5t95.5 -74t59.5 -114t20.5 -146.5zM391 745h-117l87 160h175z" unicode="Ó"/>
<glyph glyph-name="Ocircumflex" d="M517 350q0 47 -9 87.5t-28.5 70.5t-50 47t-72.5 17t-72.5 -17t-50 -47t-28.5 -70.5t-9 -87.5t9 -87.5t28.5 -70.5t50 -47t72.5 -17t72.5 17t50 47t28.5 70.5t9 87.5zM661 350q0 -80 -20.5 -146.5t-59.5 -114t-95.5 -74t-128.5 -26.5t-128.5 26.5t-95.5 74t-59.5 114 t-20.5 146.5t20.5 146.5t59.5 114t95.5 74t128.5 26.5t128.5 -26.5t95.5 -74t59.5 -114t20.5 -146.5zM454 740l-100 75l-100 -75h-91l122 160h140l122 -160h-93z" unicode="Ô"/>
<glyph glyph-name="Otilde" d="M517 350q0 47 -9 87.5t-28.5 70.5t-50 47t-72.5 17t-72.5 -17t-50 -47t-28.5 -70.5t-9 -87.5t9 -87.5t28.5 -70.5t50 -47t72.5 -17t72.5 17t50 47t28.5 70.5t9 87.5zM661 350q0 -80 -20.5 -146.5t-59.5 -114t-95.5 -74t-128.5 -26.5t-128.5 26.5t-95.5 74t-59.5 114 t-20.5 146.5t20.5 146.5t59.5 114t95.5 74t128.5 26.5t128.5 -26.5t95.5 -74t59.5 -114t20.5 -146.5zM554 886q0 -67 -32 -105.5t-83 -38.5q-16 0 -28 1.5t-23.5 5.5t-23 9.5t-26.5 14.5q-23 13 -32.5 16.5t-19.5 3.5q-14 0 -21.5 -11t-12.5 -37h-90q0 67 32 105.5t83 38.5 q16 0 28 -1.5t23 -5.5t23 -9.5t27 -14.5q23 -13 32.5 -16.5t19.5 -3.5q14 0 21.5 11t12.5 37h90z" unicode="Õ"/>
<glyph glyph-name="Odieresis" d="M517 350q0 47 -9 87.5t-28.5 70.5t-50 47t-72.5 17t-72.5 -17t-50 -47t-28.5 -70.5t-9 -87.5t9 -87.5t28.5 -70.5t50 -47t72.5 -17t72.5 17t50 47t28.5 70.5t9 87.5zM661 350q0 -80 -20.5 -146.5t-59.5 -114t-95.5 -74t-128.5 -26.5t-128.5 26.5t-95.5 74t-59.5 114 t-20.5 146.5t20.5 146.5t59.5 114t95.5 74t128.5 26.5t128.5 -26.5t95.5 -74t59.5 -114t20.5 -146.5zM325 822q0 -31 -23 -54t-55 -23t-55 23t-23 54q0 16 6.5 30.5t17 25t24.5 16.5t30 6t30 -6t24.5 -16.5t17 -25t6.5 -30.5zM541 822q0 -31 -23 -54t-54 -23 q-16 0 -30.5 6.5t-25 17t-17 24.5t-6.5 29q0 32 23.5 55t55.5 23q15 0 29 -6t24.5 -16.5t17 -25t6.5 -30.5z" unicode="Ö"/>
<glyph glyph-name="multiply" horiz-adv-x="800" unicode="×" d="M612 218q-9 -5 -16.5 -4.5t-11.5 2.5q-14 8 -14 24q0 5 2 12l20 45h-141v-124l48 19q6 2 12 2q13 0 21 -13q2 -4 3 -12t-6 -16l-129 -168l-132 168q-5 8 -4.5 16t2.5 12q9 13 23 13q6 0 12 -2l46 -19v124h-139l20 -46q2 -6 2 -12q0 -15 -14 -23q-4 -2 -11.5 -2.5 t-15.5 4.5l-169 132l169 129q8 7 15.5 6t11.5 -3q11 -6 13 -14t-1 -19l-20 -48h139v126l-46 -19q-12 -5 -20.5 -1.5t-14.5 12.5q-2 4 -2.5 12t4.5 16l132 168l129 -168q7 -8 6 -16t-3 -12q-8 -13 -21 -13q-5 0 -12 2l-48 19v-126h141l-20 48q-3 11 -1 19t13 14q4 2 11 2.5 t17 -5.5l168 -129z"/>
<glyph glyph-name="Oslash" d="M398 574q-10 2 -20 3.5t-21 1.5q-44 0 -75 -17.5t-51 -48.5t-29.5 -73t-9.5 -90q0 -41 6.5 -77t20.5 -65zM522 350q0 42 -7 79.5t-23 67.5l-180 -370q21 -6 45 -6q43 0 74.5 17.5t51.5 48.5t29.5 73t9.5 90zM661 350q0 -80 -20.5 -146.5t-59.5 -114t-95.5 -74 t-128.5 -26.5q-27 0 -53 5t-50 14l-28 -58h-132l61 124q-48 48 -75 118t-27 158q0 80 20.5 146.5t59.5 114t95.5 74t128.5 26.5q52 0 99 -18l28 57h132l-59 -122q48 -48 76 -119t28 -159z" unicode="Ø"/>
<glyph glyph-name="Ugrave" horiz-adv-x="737" unicode="Ù" d="M652 309q0 -153 -75 -236.5t-209 -83.5q-63 0 -115.5 21t-89.5 61.5t-57.5 99.5t-20.5 136v393h140v-391q0 -85 38 -134t105 -49t105.5 48t38.5 133v393h140v-391zM326 730l-145 160h175l87 -160h-117z"/>
<glyph glyph-name="Uacute" horiz-adv-x="737" unicode="Ú" d="M652 309q0 -153 -75 -236.5t-209 -83.5q-63 0 -115.5 21t-89.5 61.5t-57.5 99.5t-20.5 136v393h140v-391q0 -85 38 -134t105 -49t105.5 48t38.5 133v393h140v-391zM406 730h-117l87 160h175z"/>
<glyph glyph-name="Ucircumflex" horiz-adv-x="737" unicode="Û" d="M652 309q0 -153 -75 -236.5t-209 -83.5q-63 0 -115.5 21t-89.5 61.5t-57.5 99.5t-20.5 136v393h140v-391q0 -85 38 -134t105 -49t105.5 48t38.5 133v393h140v-391zM469 745l-100 75l-100 -75h-91l122 160h140l122 -160h-93z"/>
<glyph glyph-name="Udieresis" horiz-adv-x="737" unicode="Ü" d="M652 309q0 -153 -75 -236.5t-209 -83.5q-63 0 -115.5 21t-89.5 61.5t-57.5 99.5t-20.5 136v393h140v-391q0 -85 38 -134t105 -49t105.5 48t38.5 133v393h140v-391zM339 822q0 -31 -23 -54t-55 -23t-55 23t-23 54q0 16 6.5 30.5t17 25t24.5 16.5t30 6t30 -6t24.5 -16.5 t17 -25t6.5 -30.5zM555 822q0 -31 -23 -54t-54 -23q-16 0 -30.5 6.5t-25 17t-17 24.5t-6.5 29q0 32 23.5 55t55.5 23q15 0 29 -6t24.5 -16.5t17 -25t6.5 -30.5z"/>
<glyph glyph-name="Yacute" d="M427 277v-277h-140v274l-265 426h161l99 -166q9 -16 20.5 -35.5t22 -39t19.5 -36t14 -26.5q5 10 14 26.5t19.5 35.5t21.5 38.5t21 36.5l99 166h159zM394 735h-117l87 160h175z" unicode="Ý"/>
<glyph glyph-name="Thorn" horiz-adv-x="680" unicode="Þ" d="M493 367q0 46 -27.5 67.5t-74.5 21.5h-161v-180h163q100 0 100 91zM637 370q0 -61 -19 -104.5t-53 -71.5t-80.5 -41t-100.5 -13h-154v-140h-140v700h140v-108h166q49 0 93 -13.5t77 -41.5t52 -69.5t19 -97.5z"/>
<glyph glyph-name="germandbls" horiz-adv-x="586" unicode="ß" d="M546 221q0 -109 -59.5 -165t-183.5 -56h-22v125h18q51 0 79 22.5t28 73.5q0 112 -119 112h-6v120h5q31 0 48.5 19.5t17.5 53.5q0 31 -18 50.5t-57 19.5q-44 0 -58 -21.5t-14 -60.5v-638l-138 -69v714q0 56 15.5 95t43 63.5t66.5 35.5t87 11q44 0 83 -12t68 -35.5 t45.5 -58t16.5 -79.5q0 -55 -24.5 -89.5t-68.5 -49.5q28 -6 54.5 -18.5t47 -34.5t33 -53.5t12.5 -74.5z"/>
<glyph glyph-name="agrave" horiz-adv-x="556" unicode="à" d="M356 220q-18 11 -38.5 16.5t-57.5 5.5q-39 0 -59.5 -17t-20.5 -49q0 -28 18 -49t62 -21q34 0 59.5 14.5t36.5 33.5v66zM356 0v35q-19 -20 -50 -33t-68 -13t-72 11.5t-62.5 34.5t-44.5 58t-17 83q0 43 16.5 76t45.5 54.5t67.5 32.5t83.5 11q36 0 60 -6.5t41 -14.5v26 q0 28 -18.5 47.5t-56.5 19.5q-24 0 -42.5 -2t-35 -6t-32.5 -10.5t-34 -16.5l-53 96q23 13 44.5 23t45 16.5t49.5 10t58 3.5q48 0 87 -12t67 -35.5t43.5 -58t15.5 -78.5v-352h-138zM235 595l-145 160h175l87 -160h-117z"/>
<glyph glyph-name="aacute" horiz-adv-x="556" unicode="á" d="M356 220q-18 11 -38.5 16.5t-57.5 5.5q-39 0 -59.5 -17t-20.5 -49q0 -28 18 -49t62 -21q34 0 59.5 14.5t36.5 33.5v66zM356 0v35q-19 -20 -50 -33t-68 -13t-72 11.5t-62.5 34.5t-44.5 58t-17 83q0 43 16.5 76t45.5 54.5t67.5 32.5t83.5 11q36 0 60 -6.5t41 -14.5v26 q0 28 -18.5 47.5t-56.5 19.5q-24 0 -42.5 -2t-35 -6t-32.5 -10.5t-34 -16.5l-53 96q23 13 44.5 23t45 16.5t49.5 10t58 3.5q48 0 87 -12t67 -35.5t43.5 -58t15.5 -78.5v-352h-138zM314 595h-117l87 160h175z"/>
<glyph glyph-name="acircumflex" horiz-adv-x="556" unicode="â" d="M356 220q-18 11 -38.5 16.5t-57.5 5.5q-39 0 -59.5 -17t-20.5 -49q0 -28 18 -49t62 -21q34 0 59.5 14.5t36.5 33.5v66zM356 0v35q-19 -20 -50 -33t-68 -13t-72 11.5t-62.5 34.5t-44.5 58t-17 83q0 43 16.5 76t45.5 54.5t67.5 32.5t83.5 11q36 0 60 -6.5t41 -14.5v26 q0 28 -18.5 47.5t-56.5 19.5q-24 0 -42.5 -2t-35 -6t-32.5 -10.5t-34 -16.5l-53 96q23 13 44.5 23t45 16.5t49.5 10t58 3.5q48 0 87 -12t67 -35.5t43.5 -58t15.5 -78.5v-352h-138zM377 591l-100 75l-100 -75h-91l122 160h140l122 -160h-93z"/>
<glyph glyph-name="atilde" horiz-adv-x="556" unicode="ã" d="M356 220q-18 11 -38.5 16.5t-57.5 5.5q-39 0 -59.5 -17t-20.5 -49q0 -28 18 -49t62 -21q34 0 59.5 14.5t36.5 33.5v66zM356 0v35q-19 -20 -50 -33t-68 -13t-72 11.5t-62.5 34.5t-44.5 58t-17 83q0 43 16.5 76t45.5 54.5t67.5 32.5t83.5 11q36 0 60 -6.5t41 -14.5v26 q0 28 -18.5 47.5t-56.5 19.5q-24 0 -42.5 -2t-35 -6t-32.5 -10.5t-34 -16.5l-53 96q23 13 44.5 23t45 16.5t49.5 10t58 3.5q48 0 87 -12t67 -35.5t43.5 -58t15.5 -78.5v-352h-138zM477 736q0 -67 -32 -105.5t-83 -38.5q-16 0 -28 1.5t-23.5 5.5t-23 9.5t-26.5 14.5 q-23 13 -32.5 16.5t-19.5 3.5q-14 0 -21.5 -11t-12.5 -37h-90q0 67 32 105.5t83 38.5q16 0 28 -1.5t23 -5.5t23 -9.5t27 -14.5q23 -13 32.5 -16.5t19.5 -3.5q14 0 21.5 11t12.5 37h90z"/>
<glyph glyph-name="adieresis" horiz-adv-x="556" unicode="ä" d="M356 220q-18 11 -38.5 16.5t-57.5 5.5q-39 0 -59.5 -17t-20.5 -49q0 -28 18 -49t62 -21q34 0 59.5 14.5t36.5 33.5v66zM356 0v35q-19 -20 -50 -33t-68 -13t-72 11.5t-62.5 34.5t-44.5 58t-17 83q0 43 16.5 76t45.5 54.5t67.5 32.5t83.5 11q36 0 60 -6.5t41 -14.5v26 q0 28 -18.5 47.5t-56.5 19.5q-24 0 -42.5 -2t-35 -6t-32.5 -10.5t-34 -16.5l-53 96q23 13 44.5 23t45 16.5t49.5 10t58 3.5q48 0 87 -12t67 -35.5t43.5 -58t15.5 -78.5v-352h-138zM248 668q0 -31 -23 -54t-55 -23t-55 23t-23 54q0 16 6.5 30.5t17 25t24.5 16.5t30 6t30 -6 t24.5 -16.5t17 -25t6.5 -30.5zM464 668q0 -31 -23 -54t-54 -23q-16 0 -30.5 6.5t-25 17t-17 24.5t-6.5 29q0 32 23.5 55t55.5 23q15 0 29 -6t24.5 -16.5t17 -25t6.5 -30.5z"/>
<glyph glyph-name="aring" horiz-adv-x="556" unicode="å" d="M356 220q-18 11 -38.5 16.5t-57.5 5.5q-39 0 -59.5 -17t-20.5 -49q0 -28 18 -49t62 -21q34 0 59.5 14.5t36.5 33.5v66zM356 0v35q-19 -20 -50 -33t-68 -13t-72 11.5t-62.5 34.5t-44.5 58t-17 83q0 43 16.5 76t45.5 54.5t67.5 32.5t83.5 11q36 0 60 -6.5t41 -14.5v26 q0 28 -18.5 47.5t-56.5 19.5q-24 0 -42.5 -2t-35 -6t-32.5 -10.5t-34 -16.5l-53 96q23 13 44.5 23t45 16.5t49.5 10t58 3.5q48 0 87 -12t67 -35.5t43.5 -58t15.5 -78.5v-352h-138zM337 728q0 26 -17 43t-42 17t-42 -17t-17 -43t17 -43t42 -17t42 17t17 43zM413 728 q0 -29 -10.5 -53.5t-28.5 -42t-42.5 -27.5t-53.5 -10t-53.5 10t-42.5 27.5t-28.5 42t-10.5 53.5t10.5 53.5t28.5 42.5t42.5 28.5t53.5 10.5t53.5 -10.5t42.5 -28.5t28.5 -42.5t10.5 -53.5z"/>
<glyph glyph-name="ae" horiz-adv-x="843" unicode="æ" d="M356 220q-18 11 -38.5 16.5t-57.5 5.5q-39 0 -59.5 -17t-20.5 -49q0 -28 18 -49t62 -21q34 0 59.5 14.5t36.5 33.5v66zM666 322q-2 18 -8 34.5t-17.5 30t-28.5 21.5t-40 8q-38 0 -60 -27t-26 -67h180zM800 262q0 -15 -0.5 -25.5t-1.5 -18.5h-314q2 -27 12 -46t25 -30.5 t33.5 -17t37.5 -5.5q29 0 52 10t38 27l98 -82q-32 -41 -83.5 -63t-104.5 -22q-62 0 -108 22t-76 58q-38 -42 -78.5 -61t-91.5 -19q-37 0 -72 11.5t-62.5 34.5t-44.5 58t-17 83q0 43 16.5 76t45.5 54.5t67.5 32.5t83.5 11q36 0 60 -6.5t41 -14.5v26q0 28 -18.5 47.5 t-56.5 19.5q-24 0 -42.5 -2t-35 -6t-32.5 -10.5t-34 -16.5l-53 96q23 13 44.5 23t45 16.5t49.5 10t58 3.5q57 0 94 -15.5t64 -45.5q26 28 60.5 44.5t79.5 16.5q52 0 93.5 -21.5t69.5 -59t43 -87.5t15 -106z"/>
<glyph glyph-name="ccedilla" horiz-adv-x="537" unicode="ç" d="M501 106q-36 -48 -82 -80.5t-116 -36.5l-7 -31q6 3 15.5 5t23.5 2q32 0 55 -17t23 -54q0 -45 -32.5 -66t-86.5 -21q-41 0 -74 10.5t-57 25.5l21 38q23 -12 46 -18t43 -6q54 0 54 34q0 15 -9.5 20.5t-21.5 5.5q-10 0 -16 -1.5t-14 -5.5l-36 14l16 68q-44 7 -82 30 t-65.5 58t-43 81.5t-15.5 100.5q0 60 19 110.5t52.5 87t79.5 56.5t101 20q75 0 125 -32.5t83 -83.5l-91 -92q-23 33 -50.5 54t-69.5 21q-50 0 -79.5 -38t-29.5 -103q0 -63 29.5 -101.5t79.5 -38.5q41 0 69 17.5t55 49.5z"/>
<glyph glyph-name="egrave" horiz-adv-x="538" unicode="è" d="M361 322q-2 18 -8 34.5t-17.5 30t-28.5 21.5t-40 8q-38 0 -60 -27t-26 -67h180zM495 262q0 -15 -0.5 -25.5t-1.5 -18.5h-314q2 -27 12 -46t25 -30.5t33.5 -17t37.5 -5.5q29 0 52 10t38 27l98 -82q-32 -41 -83.5 -63t-104.5 -22q-57 0 -102.5 19.5t-77.5 55t-49.5 86 t-17.5 112.5q0 60 18 110.5t49.5 87t74 56.5t92.5 20q52 0 93.5 -21.5t69.5 -59t43 -87.5t15 -106zM230 595l-145 160h175l87 -160h-117z"/>
<glyph glyph-name="eacute" horiz-adv-x="538" unicode="é" d="M361 322q-2 18 -8 34.5t-17.5 30t-28.5 21.5t-40 8q-38 0 -60 -27t-26 -67h180zM495 262q0 -15 -0.5 -25.5t-1.5 -18.5h-314q2 -27 12 -46t25 -30.5t33.5 -17t37.5 -5.5q29 0 52 10t38 27l98 -82q-32 -41 -83.5 -63t-104.5 -22q-57 0 -102.5 19.5t-77.5 55t-49.5 86 t-17.5 112.5q0 60 18 110.5t49.5 87t74 56.5t92.5 20q52 0 93.5 -21.5t69.5 -59t43 -87.5t15 -106zM309 595h-117l87 160h175z"/>
<glyph glyph-name="ecircumflex" horiz-adv-x="538" unicode="ê" d="M361 322q-2 18 -8 34.5t-17.5 30t-28.5 21.5t-40 8q-38 0 -60 -27t-26 -67h180zM495 262q0 -15 -0.5 -25.5t-1.5 -18.5h-314q2 -27 12 -46t25 -30.5t33.5 -17t37.5 -5.5q29 0 52 10t38 27l98 -82q-32 -41 -83.5 -63t-104.5 -22q-57 0 -102.5 19.5t-77.5 55t-49.5 86 t-17.5 112.5q0 60 18 110.5t49.5 87t74 56.5t92.5 20q52 0 93.5 -21.5t69.5 -59t43 -87.5t15 -106zM372 586l-100 75l-100 -75h-91l122 160h140l122 -160h-93z"/>
<glyph glyph-name="edieresis" horiz-adv-x="538" unicode="ë" d="M361 322q-2 18 -8 34.5t-17.5 30t-28.5 21.5t-40 8q-38 0 -60 -27t-26 -67h180zM495 262q0 -15 -0.5 -25.5t-1.5 -18.5h-314q2 -27 12 -46t25 -30.5t33.5 -17t37.5 -5.5q29 0 52 10t38 27l98 -82q-32 -41 -83.5 -63t-104.5 -22q-57 0 -102.5 19.5t-77.5 55t-49.5 86 t-17.5 112.5q0 60 18 110.5t49.5 87t74 56.5t92.5 20q52 0 93.5 -21.5t69.5 -59t43 -87.5t15 -106zM243 668q0 -31 -23 -54t-55 -23t-55 23t-23 54q0 16 6.5 30.5t17 25t24.5 16.5t30 6t30 -6t24.5 -16.5t17 -25t6.5 -30.5zM459 668q0 -31 -23 -54t-54 -23q-16 0 -30.5 6.5 t-25 17t-17 24.5t-6.5 29q0 32 23.5 55t55.5 23q15 0 29 -6t24.5 -16.5t17 -25t6.5 -30.5z"/>
<glyph glyph-name="igrave" horiz-adv-x="282" unicode="ì" d="M72 0v525h138v-525h-138zM218 595l-145 160h175l87 -160h-117z"/>
<glyph glyph-name="iacute" horiz-adv-x="282" unicode="í" d="M72 0v525h138v-525h-138zM193 595h-117l87 160h175z"/>
<glyph glyph-name="icircumflex" horiz-adv-x="282" unicode="î" d="M72 0v525h138v-525h-138zM363 581l-100 75l-100 -75h-91l122 160h140l122 -160h-93z"/>
<glyph glyph-name="idieresis" horiz-adv-x="282" unicode="ï" d="M72 0v525h138v-525h-138zM228 663q0 -31 -23 -54t-55 -23t-55 23t-23 54q0 16 6.5 30.5t17 25t24.5 16.5t30 6t30 -6t24.5 -16.5t17 -25t6.5 -30.5zM444 663q0 -31 -23 -54t-54 -23q-16 0 -30.5 6.5t-25 17t-17 24.5t-6.5 29q0 32 23.5 55t55.5 23q15 0 29 -6t24.5 -16.5 t17 -25t6.5 -30.5z"/>
<glyph glyph-name="eth" horiz-adv-x="555" unicode="ð" d="M380 232q0 54 -25.5 88.5t-77.5 34.5t-77 -34.5t-25 -88.5t25 -87.5t77 -33.5q26 0 45.5 10t32 26.5t19 38.5t6.5 46zM515 282q0 -75 -18 -130t-49.5 -91.5t-75.5 -54t-95 -17.5t-94.5 17.5t-75 49.5t-49.5 77t-18 99t17.5 99t47 77.5t69 50t83.5 17.5q38 0 67.5 -9.5 t56.5 -28.5q-8 34 -24.5 61.5t-40.5 49.5l-47 -46l-64 57l36 35q-20 8 -42 13.5t-45 7.5v95q48 -2 88.5 -12t75.5 -28l41 40l64 -57l-34 -33q66 -61 96 -150.5t30 -188.5z"/>
<glyph glyph-name="ntilde" horiz-adv-x="584" unicode="ñ" d="M384 0v284q0 70 -23 96t-66 26t-66.5 -25.5t-23.5 -93.5v-287h-138v525h138v-35q18 19 49.5 32.5t73.5 13.5q100 0 147 -64.5t47 -175.5v-296h-138zM489 736q0 -67 -32 -105.5t-83 -38.5q-16 0 -28 1.5t-23.5 5.5t-23 9.5t-26.5 14.5q-23 13 -32.5 16.5t-19.5 3.5 q-14 0 -21.5 -11t-12.5 -37h-90q0 67 32 105.5t83 38.5q16 0 28 -1.5t23 -5.5t23 -9.5t27 -14.5q23 -13 32.5 -16.5t19.5 -3.5q14 0 21.5 11t12.5 37h90z"/>
<glyph glyph-name="ograve" horiz-adv-x="555" unicode="ò" d="M375 262q0 60 -24 100.5t-74 40.5t-73.5 -40t-23.5 -101t23.5 -100.5t73.5 -39.5q25 0 43.5 11.5t30.5 31t18 45t6 52.5zM515 262q0 -60 -18 -110.5t-49.5 -86.5t-75.5 -56t-95 -20t-94.5 20t-75 56t-49.5 86.5t-18 110.5t18 110.5t49.5 87t75 56.5t94.5 20t95 -20 t75.5 -56.5t49.5 -87t18 -110.5zM234 595l-145 160h175l87 -160h-117z"/>
<glyph glyph-name="oacute" horiz-adv-x="555" unicode="ó" d="M375 262q0 60 -24 100.5t-74 40.5t-73.5 -40t-23.5 -101t23.5 -100.5t73.5 -39.5q25 0 43.5 11.5t30.5 31t18 45t6 52.5zM515 262q0 -60 -18 -110.5t-49.5 -86.5t-75.5 -56t-95 -20t-94.5 20t-75 56t-49.5 86.5t-18 110.5t18 110.5t49.5 87t75 56.5t94.5 20t95 -20 t75.5 -56.5t49.5 -87t18 -110.5zM313 595h-117l87 160h175z"/>
<glyph glyph-name="ocircumflex" horiz-adv-x="555" unicode="ô" d="M375 262q0 60 -24 100.5t-74 40.5t-73.5 -40t-23.5 -101t23.5 -100.5t73.5 -39.5q25 0 43.5 11.5t30.5 31t18 45t6 52.5zM515 262q0 -60 -18 -110.5t-49.5 -86.5t-75.5 -56t-95 -20t-94.5 20t-75 56t-49.5 86.5t-18 110.5t18 110.5t49.5 87t75 56.5t94.5 20t95 -20 t75.5 -56.5t49.5 -87t18 -110.5zM376 586l-100 75l-100 -75h-91l122 160h140l122 -160h-93z"/>
<glyph glyph-name="otilde" horiz-adv-x="555" unicode="õ" d="M375 262q0 60 -24 100.5t-74 40.5t-73.5 -40t-23.5 -101t23.5 -100.5t73.5 -39.5q25 0 43.5 11.5t30.5 31t18 45t6 52.5zM515 262q0 -60 -18 -110.5t-49.5 -86.5t-75.5 -56t-95 -20t-94.5 20t-75 56t-49.5 86.5t-18 110.5t18 110.5t49.5 87t75 56.5t94.5 20t95 -20 t75.5 -56.5t49.5 -87t18 -110.5zM472 736q0 -67 -32 -105.5t-83 -38.5q-16 0 -28 1.5t-23.5 5.5t-23 9.5t-26.5 14.5q-23 13 -32.5 16.5t-19.5 3.5q-14 0 -21.5 -11t-12.5 -37h-90q0 67 32 105.5t83 38.5q16 0 28 -1.5t23 -5.5t23 -9.5t27 -14.5q23 -13 32.5 -16.5 t19.5 -3.5q14 0 21.5 11t12.5 37h90z"/>
<glyph glyph-name="odieresis" horiz-adv-x="555" unicode="ö" d="M375 262q0 60 -24 100.5t-74 40.5t-73.5 -40t-23.5 -101t23.5 -100.5t73.5 -39.5q25 0 43.5 11.5t30.5 31t18 45t6 52.5zM515 262q0 -60 -18 -110.5t-49.5 -86.5t-75.5 -56t-95 -20t-94.5 20t-75 56t-49.5 86.5t-18 110.5t18 110.5t49.5 87t75 56.5t94.5 20t95 -20 t75.5 -56.5t49.5 -87t18 -110.5zM247 663q0 -31 -23 -54t-55 -23t-55 23t-23 54q0 16 6.5 30.5t17 25t24.5 16.5t30 6t30 -6t24.5 -16.5t17 -25t6.5 -30.5zM463 663q0 -31 -23 -54t-54 -23q-16 0 -30.5 6.5t-25 17t-17 24.5t-6.5 29q0 32 23.5 55t55.5 23q15 0 29 -6 t24.5 -16.5t17 -25t6.5 -30.5z"/>
<glyph glyph-name="divide" horiz-adv-x="800" unicode="÷" d="M612 218q-9 -5 -16.5 -4.5t-11.5 2.5q-14 8 -14 24q0 5 2 12l20 45h-141v-124l48 19q6 2 12 2q13 0 21 -13q2 -4 3 -12t-6 -16l-129 -168l-132 168q-5 8 -4.5 16t2.5 12q9 13 23 13q6 0 12 -2l46 -19v124h-139l20 -46q2 -6 2 -12q0 -15 -14 -23q-4 -2 -11.5 -2.5 t-15.5 4.5l-169 132l169 129q8 7 15.5 6t11.5 -3q11 -6 13 -14t-1 -19l-20 -48h139v126l-46 -19q-12 -5 -20.5 -1.5t-14.5 12.5q-2 4 -2.5 12t4.5 16l132 168l129 -168q7 -8 6 -16t-3 -12q-8 -13 -21 -13q-5 0 -12 2l-48 19v-126h141l-20 48q-3 11 -1 19t13 14q4 2 11 2.5 t17 -5.5l168 -129z"/>
<glyph glyph-name="oslash" horiz-adv-x="555" unicode="ø" d="M385 262q0 44 -12 80l-124 -235q12 -4 28 -4q27 0 47.5 13.5t34 36t20 51t6.5 58.5zM303 419q-12 3 -26 3q-27 0 -47.5 -12.5t-33.5 -34t-19.5 -51t-6.5 -62.5q0 -43 10 -76zM515 262q0 -60 -18 -110.5t-49.5 -86.5t-75.5 -56t-95 -20q-20 0 -39.5 3.5t-38.5 9.5l-27 -52 h-123l60 113q-32 36 -50.5 86.5t-18.5 112.5q0 60 18 110.5t49.5 87t75 56.5t94.5 20q41 0 76 -13l27 52h123l-59 -112q34 -37 52.5 -88t18.5 -113z"/>
<glyph glyph-name="ugrave" horiz-adv-x="584" unicode="ù" d="M379 0v35q-18 -19 -49.5 -32.5t-73.5 -13.5q-101 0 -147.5 64.5t-46.5 175.5v296h138v-284q0 -35 6 -58.5t17 -37.5t28 -20t38 -6q43 0 66.5 25.5t23.5 93.5v287h138v-525h-138zM246 595l-145 160h175l87 -160h-117z"/>
<glyph glyph-name="uacute" horiz-adv-x="584" unicode="ú" d="M379 0v35q-18 -19 -49.5 -32.5t-73.5 -13.5q-101 0 -147.5 64.5t-46.5 175.5v296h138v-284q0 -35 6 -58.5t17 -37.5t28 -20t38 -6q43 0 66.5 25.5t23.5 93.5v287h138v-525h-138zM326 595h-117l87 160h175z"/>
<glyph glyph-name="ucircumflex" horiz-adv-x="584" unicode="û" d="M379 0v35q-18 -19 -49.5 -32.5t-73.5 -13.5q-101 0 -147.5 64.5t-46.5 175.5v296h138v-284q0 -35 6 -58.5t17 -37.5t28 -20t38 -6q43 0 66.5 25.5t23.5 93.5v287h138v-525h-138zM389 595l-100 75l-100 -75h-91l122 160h140l122 -160h-93z"/>
<glyph glyph-name="udieresis" horiz-adv-x="584" unicode="ü" d="M379 0v35q-18 -19 -49.5 -32.5t-73.5 -13.5q-101 0 -147.5 64.5t-46.5 175.5v296h138v-284q0 -35 6 -58.5t17 -37.5t28 -20t38 -6q43 0 66.5 25.5t23.5 93.5v287h138v-525h-138zM260 672q0 -31 -23 -54t-55 -23t-55 23t-23 54q0 16 6.5 30.5t17 25t24.5 16.5t30 6t30 -6 t24.5 -16.5t17 -25t6.5 -30.5zM476 672q0 -31 -23 -54t-54 -23q-16 0 -30.5 6.5t-25 17t-17 24.5t-6.5 29q0 32 23.5 55t55.5 23q15 0 29 -6t24.5 -16.5t17 -25t6.5 -30.5z"/>
<glyph glyph-name="yacute" horiz-adv-x="590" unicode="ý" d="M295 -185h-136l70 185l-204 525h152l86 -253q11 -30 20 -63t14 -52q5 20 14 52t20 63l86 253h148zM330 586h-117l87 160h175z"/>
<glyph glyph-name="thorn" horiz-adv-x="562" unicode="þ" d="M380 253q0 81 -24.5 117t-65.5 36q-32 0 -51 -12t-34 -32v-198q33 -45 93 -45q82 0 82 134zM520 256q0 -59 -13.5 -108t-39.5 -84.5t-64 -55t-87 -19.5q-35 0 -63.5 12t-47.5 29v-154l-138 -69v853l138 69v-237q20 17 46.5 30.5t64.5 13.5q42 0 79 -16t65 -50.5t44 -87.5 t16 -126z"/>
<glyph glyph-name="dotlessi" horiz-adv-x="282" unicode="ı" d="M72 0v525h138v-525h-138z"/>
<glyph glyph-name="circumflex" horiz-adv-x="500" unicode="ˆ" d="M349 595l-100 75l-100 -75h-91l122 160h140l122 -160h-93z"/>
<glyph glyph-name="ring" horiz-adv-x="500" unicode="˚" d="M309 728q0 26 -17 43t-42 17t-42 -17t-17 -43t17 -43t42 -17t42 17t17 43zM385 728q0 -29 -10.5 -53.5t-28.5 -42t-42.5 -27.5t-53.5 -10t-53.5 10t-42.5 27.5t-28.5 42t-10.5 53.5t10.5 53.5t28.5 42.5t42.5 28.5t53.5 10.5t53.5 -10.5t42.5 -28.5t28.5 -42.5 t10.5 -53.5z"/>
<glyph glyph-name="tilde" horiz-adv-x="500" unicode="˜" d="M449 736q0 -67 -32 -105.5t-83 -38.5q-16 0 -28 1.5t-23.5 5.5t-23 9.5t-26.5 14.5q-23 13 -32.5 16.5t-19.5 3.5q-14 0 -21.5 -11t-12.5 -37h-90q0 67 32 105.5t83 38.5q16 0 28 -1.5t23 -5.5t23 -9.5t27 -14.5q23 -13 32.5 -16.5t19.5 -3.5q14 0 21.5 11t12.5 37h90z "/>
</font>
</defs>
</svg>
